<svg width="24" height="24" viewBox="0 0 24 24" fill="none" xmlns="http://www.w3.org/2000/svg">
<path d="M16.6759 17.5269C16.3383 18.5557 15.749 19.4838 14.9615 20.227C14.1741 20.9703 13.2134 21.505 12.1668 21.7826C11.1203 22.0603 10.0209 22.0721 8.96859 21.817C7.91628 21.5619 6.94438 21.048 6.14114 20.3219C5.3379 19.5957 4.72878 18.6805 4.3691 17.6592C4.00942 16.6379 3.91057 15.5429 4.08154 14.4737C4.2525 13.4045 4.68787 12.3949 5.34808 11.5367C6.0083 10.6785 6.87246 9.99878 7.86207 9.55935" stroke="#0C3058" stroke-width="1.5" stroke-linecap="round" stroke-linejoin="round"/>
<circle cx="11.5" cy="4.5" r="2.5" stroke="#0C3058" stroke-width="1.5" stroke-linecap="round" stroke-linejoin="round"/>
<path d="M11 7.5V13.5H18.5L20 18.5" stroke="#0C3058" stroke-width="1.5" stroke-linecap="round" stroke-linejoin="round"/>
</svg>
