<svg width="22" height="22" viewBox="0 0 22 22" fill="none" xmlns="http://www.w3.org/2000/svg">
<path d="M10.75 3.75L9.64612 2.20459C9.23506 1.62911 9.02953 1.34137 9.15932 1.07411C9.28911 0.806838 9.61893 0.791531 10.2786 0.760917C10.4348 0.753666 10.592 0.75 10.75 0.75C16.2728 0.75 20.75 5.22715 20.75 10.75C20.75 16.2728 16.2728 20.75 10.75 20.75C5.22715 20.75 0.75 16.2728 0.75 10.75C0.75 7.47836 2.32111 4.57368 4.75 2.74927" stroke="#000000" stroke-width="1.5" stroke-linecap="round" stroke-linejoin="round"/>
<path d="M5.6 13.1136C5.6 13.4726 5.89101 13.7636 6.25 13.7636C6.60899 13.7636 6.9 13.4726 6.9 13.1136H6.25H5.6ZM7.00803 14.729L7.15398 14.0956L7.00803 14.729ZM6.2681 13.8719L6.90872 13.7619L6.2681 13.8719ZM9.52808 13.8719L8.88745 13.7619L9.52808 13.8719ZM8.78814 14.729L8.64219 14.0956L8.78814 14.729ZM8.78814 12.0437L8.64219 12.6771L8.78814 12.0437ZM9.52808 12.9008L8.88745 13.0108L9.52808 12.9008ZM7.00803 12.0437L7.15398 12.6771L7.00803 12.0437ZM6.2681 12.9008L6.90872 13.0108L6.2681 12.9008ZM8.86322 9.75C8.86322 10.109 9.15423 10.4 9.51322 10.4C9.8722 10.4 10.1632 10.109 10.1632 9.75H9.51322H8.86322ZM12.3552 14.5815L12.7299 14.0503L12.3552 14.5815ZM12.0939 14.3056L12.6431 13.9579L12.0939 14.3056ZM15.0903 14.3056L14.5411 13.9579L15.0903 14.3056ZM14.829 14.5815L14.4543 14.0503L14.829 14.5815ZM14.829 8.91853L14.4543 9.44971L14.829 8.91853ZM15.0903 9.19443L14.5411 9.54209L15.0903 9.19443ZM12.3552 8.91853L12.7299 9.44971L12.3552 8.91853ZM12.0939 9.19443L12.6431 9.54209L12.0939 9.19443ZM6.25 13.1136H6.9V10.9318H6.25H5.6V13.1136H6.25ZM7.89809 8.75V8.1C7.53371 8.1 7.1743 8.09761 6.87999 8.15C6.54425 8.20975 6.21906 8.35159 5.9727 8.67774L6.49136 9.06952L7.01002 9.4613C7.0146 9.45524 7.01639 9.45399 7.01525 9.45498C7.01401 9.45606 7.01322 9.45639 7.01463 9.45562C7.0182 9.45368 7.04187 9.44162 7.10779 9.42988C7.26227 9.40239 7.48555 9.4 7.89809 9.4V8.75ZM6.25 10.9318H6.9C6.9 10.4036 6.90079 10.057 6.92684 9.80047C6.95246 9.54821 6.99536 9.48071 7.01002 9.4613L6.49136 9.06952L5.9727 8.67774C5.746 8.97785 5.66822 9.32724 5.6335 9.66912C5.59921 10.0068 5.6 10.4315 5.6 10.9318H6.25ZM7.4272 12.0227V12.6727H8.36897V12.0227V11.3727H7.4272V12.0227ZM8.36897 14.75V14.1H7.4272V14.75V15.4H8.36897V14.75ZM7.4272 14.75V14.1C7.3127 14.1 7.24565 14.0999 7.19544 14.0979C7.14832 14.096 7.14343 14.0932 7.15398 14.0956L7.00803 14.729L6.86209 15.3624C7.04319 15.4042 7.24419 15.4 7.4272 15.4V14.75ZM6.25 13.3864H5.6C5.6 13.6127 5.59763 13.8081 5.62747 13.9819L6.2681 13.8719L6.90872 13.7619C6.90237 13.7249 6.9 13.6669 6.9 13.3864H6.25ZM7.00803 14.729L7.15398 14.0956C7.07983 14.0785 6.94689 13.9842 6.90872 13.7619L6.2681 13.8719L5.62747 13.9819C5.73792 14.6251 6.18906 15.2074 6.86209 15.3624L7.00803 14.729ZM8.36897 14.75V15.4C8.55199 15.4 8.75298 15.4042 8.93408 15.3624L8.78814 14.729L8.64219 14.0956C8.65274 14.0932 8.64785 14.096 8.60073 14.0979C8.55052 14.0999 8.48347 14.1 8.36897 14.1V14.75ZM9.52808 13.8719L8.88745 13.7619C8.84928 13.9842 8.71635 14.0785 8.64219 14.0956L8.78814 14.729L8.93408 15.3624C9.60711 15.2074 10.0583 14.6251 10.1687 13.9819L9.52808 13.8719ZM8.36897 12.0227V12.6727C8.48347 12.6727 8.55052 12.6728 8.60073 12.6748C8.64785 12.6767 8.65274 12.6795 8.64219 12.6771L8.78814 12.0437L8.93408 11.4103C8.75298 11.3686 8.55199 11.3727 8.36897 11.3727V12.0227ZM8.78814 12.0437L8.64219 12.6771C8.71635 12.6942 8.84928 12.7885 8.88745 13.0108L9.52808 12.9008L10.1687 12.7908C10.0583 12.1476 9.60711 11.5654 8.93408 11.4103L8.78814 12.0437ZM7.4272 12.0227V11.3727C7.24419 11.3727 7.04319 11.3686 6.86209 11.4103L7.00803 12.0437L7.15398 12.6771C7.14343 12.6795 7.14832 12.6767 7.19544 12.6748C7.24565 12.6728 7.3127 12.6727 7.4272 12.6727V12.0227ZM6.25 13.3864H6.9C6.9 13.1058 6.90237 13.0478 6.90872 13.0108L6.2681 12.9008L5.62747 12.7908C5.59763 12.9646 5.6 13.16 5.6 13.3864H6.25ZM7.00803 12.0437L6.86209 11.4103C6.18906 11.5654 5.73792 12.1476 5.62747 12.7908L6.2681 12.9008L6.90872 13.0108C6.94689 12.7885 7.07983 12.6942 7.15398 12.6771L7.00803 12.0437ZM9.52808 12.9008L8.88745 13.0108C8.92524 13.2308 8.92524 13.5419 8.88745 13.7619L9.52808 13.8719L10.1687 13.9819C10.2315 13.6163 10.2315 13.1564 10.1687 12.7908L9.52808 12.9008ZM7.89809 8.75V9.4C8.11159 9.4 8.29017 9.40162 8.44797 9.41583C8.6071 9.43016 8.70636 9.45454 8.76648 9.48024C8.81603 9.50141 8.8227 9.51582 8.82512 9.51977C8.83141 9.53005 8.86322 9.58824 8.86322 9.75H9.51322H10.1632C10.1632 9.4218 10.0986 9.11003 9.9338 8.84093C9.76516 8.56552 9.52619 8.39117 9.27738 8.28484C8.83221 8.09458 8.28147 8.1 7.89809 8.1V8.75ZM15.25 10.5H14.6V13H15.25H15.9V10.5H15.25ZM11.9342 13H12.5842V10.5H11.9342H11.2842V13H11.9342ZM13.5921 14.75V14.1C13.2452 14.1 13.0366 14.0991 12.8832 14.0826C12.8125 14.0751 12.7728 14.0658 12.7512 14.059C12.7411 14.0558 12.7356 14.0533 12.7333 14.0522C12.7312 14.0512 12.7304 14.0506 12.7299 14.0503L12.3552 14.5815L11.9806 15.1126C12.2265 15.2861 12.4927 15.3482 12.7444 15.3752C12.9833 15.4009 13.2737 15.4 13.5921 15.4V14.75ZM11.9342 13H11.2842C11.2842 13.3383 11.2835 13.6384 11.3072 13.8839C11.3317 14.1386 11.3873 14.4047 11.5447 14.6532L12.0939 14.3056L12.6431 13.9579C12.6408 13.9542 12.6165 13.9186 12.6012 13.7592C12.5849 13.5905 12.5842 13.3639 12.5842 13H11.9342ZM12.3552 14.5815L12.7299 14.0503C12.6976 14.0275 12.6676 13.9966 12.6431 13.9579L12.0939 14.3056L11.5447 14.6532C11.6584 14.8329 11.806 14.9895 11.9806 15.1126L12.3552 14.5815ZM15.25 13H14.6C14.6 13.3639 14.5993 13.5905 14.583 13.7592C14.5677 13.9186 14.5435 13.9542 14.5411 13.9579L15.0903 14.3056L15.6396 14.6532C15.7969 14.4047 15.8525 14.1386 15.877 13.8839C15.9007 13.6384 15.9 13.3383 15.9 13H15.25ZM13.5921 14.75V15.4C13.9105 15.4 14.2009 15.4009 14.4398 15.3752C14.6915 15.3482 14.9577 15.2861 15.2036 15.1126L14.829 14.5815L14.4543 14.0503C14.4538 14.0506 14.453 14.0512 14.4509 14.0522C14.4486 14.0533 14.4432 14.0558 14.433 14.059C14.4114 14.0658 14.3717 14.0751 14.301 14.0826C14.1476 14.0991 13.939 14.1 13.5921 14.1V14.75ZM15.0903 14.3056L14.5411 13.9579C14.5166 13.9966 14.4866 14.0275 14.4543 14.0503L14.829 14.5815L15.2036 15.1126C15.3782 14.9895 15.5258 14.8329 15.6396 14.6532L15.0903 14.3056ZM13.5921 8.75V9.4C13.939 9.4 14.1476 9.40087 14.301 9.41735C14.3717 9.42495 14.4114 9.43421 14.433 9.44103C14.4432 9.44422 14.4486 9.44666 14.4509 9.44777C14.453 9.4488 14.4538 9.44937 14.4543 9.44971L14.829 8.91853L15.2036 8.38736C14.9577 8.21394 14.6915 8.15181 14.4398 8.12478C14.2009 8.09913 13.9105 8.1 13.5921 8.1V8.75ZM15.25 10.5H15.9C15.9 10.1617 15.9007 9.86162 15.877 9.61611C15.8525 9.36139 15.7969 9.09532 15.6396 8.84677L15.0903 9.19443L14.5411 9.54209C14.5435 9.54576 14.5677 9.58136 14.583 9.74082C14.5993 9.90947 14.6 10.1361 14.6 10.5H15.25ZM14.829 8.91853L14.4543 9.44971C14.4866 9.47249 14.5166 9.50338 14.5411 9.54209L15.0903 9.19443L15.6396 8.84677C15.5258 8.6671 15.3782 8.51049 15.2036 8.38736L14.829 8.91853ZM13.5921 8.75V8.1C13.2737 8.1 12.9833 8.09913 12.7444 8.12478C12.4927 8.15181 12.2265 8.21394 11.9806 8.38736L12.3552 8.91853L12.7299 9.44971C12.7304 9.44937 12.7312 9.4488 12.7333 9.44777C12.7356 9.44666 12.7411 9.44422 12.7512 9.44103C12.7728 9.43421 12.8125 9.42495 12.8832 9.41735C13.0366 9.40087 13.2452 9.4 13.5921 9.4V8.75ZM11.9342 10.5H12.5842C12.5842 10.1361 12.5849 9.90947 12.6012 9.74082C12.6165 9.58136 12.6408 9.54576 12.6431 9.54209L12.0939 9.19443L11.5447 8.84677C11.3873 9.09532 11.3317 9.36139 11.3072 9.61611C11.2835 9.86162 11.2842 10.1617 11.2842 10.5H11.9342ZM12.3552 8.91853L11.9806 8.38736C11.806 8.51049 11.6584 8.66709 11.5447 8.84677L12.0939 9.19443L12.6431 9.54209C12.6676 9.50338 12.6976 9.47249 12.7299 9.44971L12.3552 8.91853Z" fill="#000000"/>
</svg>
