<svg width="21" height="21" viewBox="0 0 21 21" fill="none" xmlns="http://www.w3.org/2000/svg">
<path d="M18.75 3.75C18.75 5.40685 17.4069 6.75 15.75 6.75C14.0931 6.75 12.75 5.40685 12.75 3.75C12.75 2.09315 14.0931 0.75 15.75 0.75C17.4069 0.75 18.75 2.09315 18.75 3.75Z" stroke="#0C3058" stroke-width="1.5"/>
<path d="M6.75 9.75C6.75 11.4069 5.40685 12.75 3.75 12.75C2.09315 12.75 0.75 11.4069 0.75 9.75C0.75 8.09315 2.09315 6.75 3.75 6.75C5.40685 6.75 6.75 8.09315 6.75 9.75Z" stroke="#0C3058" stroke-width="1.5"/>
<path d="M19.75 16.75C19.75 18.4069 18.4069 19.75 16.75 19.75C15.0931 19.75 13.75 18.4069 13.75 16.75C13.75 15.0931 15.0931 13.75 16.75 13.75C18.4069 13.75 19.75 15.0931 19.75 16.75Z" stroke="#0C3058" stroke-width="1.5"/>
<path d="M12.7848 2.83109C12.4054 2.77765 12.0177 2.75 11.6233 2.75C8.54738 2.75 5.87058 4.43227 4.49054 6.91317M17.9631 5.74453C19.0811 7.11497 19.75 8.85559 19.75 10.75C19.75 12.1258 19.3972 13.4205 18.7758 14.5512M14.1316 18.3617C13.3417 18.6138 12.4986 18.75 11.6233 18.75C7.83287 18.75 4.64853 16.1954 3.75 12.7398" stroke="#0C3058" stroke-width="1.5"/>
</svg>
