<svg width="22" height="22" viewBox="0 0 22 22" fill="none" xmlns="http://www.w3.org/2000/svg">
<path d="M0.75 20.75L20.75 20.75" stroke="#0C3058" stroke-width="1.5" stroke-linecap="round"/>
<path d="M16.75 7.75L12.75 7.75C10.268 7.75 9.75 8.268 9.75 10.75L9.75 20.75H19.75L19.75 10.75C19.75 8.268 19.232 7.75 16.75 7.75Z" stroke="#0C3058" stroke-width="1.5" stroke-linejoin="round"/>
<path d="M13.75 20.75L1.75 20.75L1.75 3.75C1.75 1.268 2.268 0.75 4.75 0.75L10.75 0.75C13.232 0.75 13.75 1.268 13.75 3.75L13.75 7.75" stroke="#0C3058" stroke-width="1.5" stroke-linejoin="round"/>
<path d="M1.75 4.75L4.75 4.75M1.75 8.75H4.75M1.75 12.75H4.75" stroke="#0C3058" stroke-width="1.5" stroke-linecap="round"/>
<path d="M13.75 11.75H15.75M13.75 14.75H15.75" stroke="#0C3058" stroke-width="1.5" stroke-linecap="round"/>
<path d="M14.75 20.75L14.75 17.75" stroke="#0C3058" stroke-width="1.5" stroke-linecap="round" stroke-linejoin="round"/>
</svg>
