<svg width="784" height="450" viewBox="0 0 784 450" fill="none" xmlns="http://www.w3.org/2000/svg">
        <line y1="-1" x2="550" y2="-1" transform="matrix(-1 -0.000511705 -0.000511705 1 667 365.199)" stroke="#0C3058" stroke-width="2"/>
        <path d="M596.854 285.578C590.813 286.792 579.57 289.848 538.896 286.082C488.054 281.375 456.936 273.549 453.078 272.889C449.061 272.488 439.099 272.255 431.391 274.525C423.682 276.795 402.548 272.576 392.945 270.182C388.501 269.248 381.078 270.117 386.937 281.065C392.796 292.013 402.845 293.562 403.677 297.227" stroke="#0C3058" stroke-width="2" stroke-linecap="round"/>
        <path d="M488.13 296.691C488.13 294.429 480.317 290.483 475.478 290.212C469.43 289.872 456.345 289.379 451.212 288.202L437.318 286.316C431.985 285.164 420.84 282.796 418.918 282.536C416.515 282.21 398.333 279.26 400.009 284.448C401.686 289.635 405.959 288.363 408.864 290.345C411.188 291.93 411.938 295.851 411.956 296.691" stroke="#0C3058" stroke-width="2" stroke-linecap="round"/>
        <path d="M597.448 242.525C593.972 242.603 587.4 243.042 586.093 243.789C584.458 244.723 576.147 245.866 571.927 244.645C568.95 243.784 548.316 243.571 547.02 247.136C546.086 249.704 548.377 252.117 553.48 252.74C554.562 252.872 562.945 252.117 564.766 252.117C571.927 252.117 596.14 258.337 597.448 258.035" stroke="#0C3058" stroke-width="2" stroke-linecap="round"/>
        <path d="M597.942 128.708C588.832 126.589 557.835 127.825 543.475 128.708C537.103 128.987 522.174 129.908 513.441 131.356C502.525 133.167 488.903 127.993 485.319 130.649C481.734 133.305 438.136 147.372 429.881 147.982C421.625 148.591 407.525 144.257 400.908 138.518C394.292 132.779 355.752 131.684 351.016 133.717C347.228 135.344 338.776 134.676 337.74 135.282C325.51 135.803 299.701 136.533 294.309 135.282C291.37 135.282 285.231 135.282 284.183 135.282" stroke="#0C3058" stroke-width="2" stroke-linecap="round"/>
        <path d="M372.21 115.917C374.34 133.319 425.321 130.41 447.867 123.798C448.804 123.523 449.746 123.311 450.716 123.198C472.814 120.627 488.719 123.276 489.141 115.706" stroke="#0C3058" stroke-width="2" stroke-linecap="round"/>
        <path d="M559.45 113.738H595.208H598.05C598.109 113.738 598.157 113.786 598.157 113.845V132.252C598.157 133.327 597.724 134.357 596.957 135.11L592.891 139.093C591.946 140.018 592.143 141.589 593.287 142.252L596.164 143.92C597.398 144.635 598.157 145.954 598.157 147.38L598.157 155.821C598.157 155.876 598.115 155.922 598.061 155.927L589.506 156.769C589.392 156.781 589.383 156.943 589.495 156.967L597.459 158.645C597.509 158.656 597.544 158.699 597.544 158.75V176.797C597.544 176.856 597.496 176.904 597.437 176.904H557.191C547.886 177.789 532.38 177.273 525.791 176.904H427.25H336.031H283.468C283.404 176.904 283.357 176.852 283.364 176.788C283.48 175.792 284.3 168.588 284.32 163.815C284.336 159.927 283.835 156.491 283.547 154.846C283.446 154.272 283.804 153.708 284.371 153.573L300.475 149.719C300.583 149.693 300.585 149.539 300.476 149.511L283.441 145.186C283.389 145.173 283.355 145.126 283.36 145.073C283.459 144.131 284.297 136.006 284.32 130.653C284.345 124.964 283.476 116.338 283.363 115.24C283.356 115.177 283.406 115.123 283.47 115.123H329.441C344.451 116.334 382.808 115.628 400.11 115.123H472.663C475.076 115.123 508.375 115.838 516.977 115.123C523.858 114.552 548.159 113.962 559.45 113.738Z" stroke="#0C3058" stroke-width="2" stroke-linecap="round"/>
        <path d="M322.058 234.041H286.299H284.422C283.83 234.041 283.351 234.52 283.351 235.112V255.626C283.351 256.313 283.703 256.951 284.284 257.318L288.705 260.107C289.448 260.575 289.342 261.689 288.525 262.009L284.03 263.773C283.62 263.934 283.351 264.33 283.351 264.77V266.942C283.628 270.111 284.014 277.08 283.379 279.943C283.361 280.026 283.351 280.108 283.351 280.193V292.14V296.136C283.351 296.727 283.83 297.206 284.422 297.206H287.434H324.317C333.622 298.092 349.128 297.575 355.717 297.206H545.477H596.959C597.601 297.206 598.092 296.65 598.023 296.012C597.76 293.598 597.204 288.038 597.188 284.118C597.172 280.239 597.671 274.842 597.959 272.059C598.068 271.009 597.408 270.03 596.392 269.747L593.134 268.838C592.314 268.609 592.137 267.526 592.841 267.048L597.057 264.182C597.731 263.723 598.087 262.926 597.989 262.117C597.716 259.865 597.206 255.117 597.188 250.956C597.167 246.187 597.774 239.356 598.038 236.623C598.099 235.985 597.594 235.433 596.953 235.441L551.261 235.989C536.252 237.199 467.383 235.93 450.08 235.426C447.667 235.426 373.132 236.141 364.531 235.426C357.65 234.855 333.349 234.265 322.058 234.041Z" stroke="#0C3058" stroke-width="2" stroke-linecap="round"/>
        <path d="M579.454 177.299V235.115" stroke="#0C3058" stroke-width="2" stroke-linecap="round"/>
        <path d="M557.6 177.299V234.952" stroke="#0C3058" stroke-width="2" stroke-linecap="round"/>
        <path d="M320.236 177.299V234.04" stroke="#0C3058" stroke-width="2" stroke-linecap="round"/>
        <path d="M320.236 297.695L320.236 363" stroke="#0C3058" stroke-width="2"/>
        <path d="M557.6 297.695V364.725" stroke="#0C3058" stroke-width="2"/>
        <path d="M579.454 297.695V363.819" stroke="#0C3058" stroke-width="2"/>
        <path d="M298.799 177.299V234.04" stroke="#0C3058" stroke-width="2" stroke-linecap="round"/>
        <path d="M569.092 99.8984C563.297 99.8984 558.6 104.596 558.6 110.391V113.568H579.584V110.391C579.584 104.596 574.887 99.8985 569.092 99.8984Z" stroke="#0C3058" stroke-width="2" stroke-linecap="round"/>
        <path d="M308.744 99.8984C302.949 99.8984 298.251 104.596 298.251 110.391V114.934H319.236V110.391C319.236 104.596 314.538 99.8985 308.744 99.8984Z" stroke="#0C3058" stroke-width="2" stroke-linecap="round"/>
        <path d="M589.81 156.916C579.267 155.546 556.498 153.751 543.484 157.039C538.804 158.112 526.881 159.613 516.499 157.07C516.414 157.05 516.328 157.039 516.241 157.039H506.349" stroke="#0C3058" stroke-width="2" stroke-linecap="round"/>
        <path d="M289.056 261.16C296.645 259.79 316.253 256.889 325.622 260.177C328.812 261.193 335.404 263.083 342.429 261.128C343.285 260.89 344.164 260.729 345.052 260.729H356.982" stroke="#0C3058" stroke-width="2" stroke-linecap="round"/>
        <path d="M299 297.266V337.484" stroke="#0C3058" stroke-width="2"/>
        <path d="M249.211 261.413L307.023 350.078C310.894 356.015 306.634 363.878 299.547 363.878H183.922C176.834 363.878 172.574 356.015 176.445 350.078L234.258 261.413C237.779 256.012 245.69 256.012 249.211 261.413Z" stroke="#0C3058" stroke-width="2"/>
        <path d="M244.75 270.472L296.996 350.26C298.565 352.657 296.846 355.839 293.98 355.839H189.488C186.623 355.839 184.903 352.657 186.473 350.26L197.549 333.346L212.277 310.853L238.719 270.472C240.142 268.299 243.327 268.299 244.75 270.472Z" stroke="#0C3058" stroke-width="2"/>
        <path d="M238.346 304.821H244.169C245.242 304.821 246.077 305.752 245.961 306.818L243.353 330.849C243.123 332.966 240.057 333.004 239.775 330.893L236.56 306.862C236.416 305.782 237.256 304.821 238.346 304.821Z" stroke="#0C3058" stroke-width="2"/>
        <circle cx="4.44357" cy="4.44357" r="3.44357" transform="matrix(-1 0 0 1 246.178 336.751)" stroke="#0C3058" stroke-width="2"/>
    </svg>