<svg width="20" height="22" viewBox="0 0 20 22" fill="none" xmlns="http://www.w3.org/2000/svg">
<path d="M13.4118 11.75H12.4626C12.0834 11.75 11.8937 11.75 11.7441 11.8134C11.2347 12.0295 11.2416 12.5373 11.2416 13C11.2416 13.4627 11.2347 13.9705 11.7441 14.1866C11.8937 14.25 12.0834 14.25 12.4626 14.25C12.8419 14.25 13.0316 14.25 13.1812 14.3134C13.6906 14.5295 13.6837 15.0373 13.6837 15.5C13.6837 15.9627 13.6906 16.4705 13.1812 16.6866C13.0316 16.75 12.8419 16.75 12.4626 16.75H11.4289M5.75 11.75L7.45791 14.25M7.45791 14.25L9.16582 16.75M7.45791 14.25L9.16582 11.75M7.45791 14.25L5.75 16.75M18.75 16.75H17.896C17.0909 16.75 16.6884 16.75 16.4383 16.5059C16.1881 16.2618 16.1881 15.869 16.1881 15.0833V11.75" stroke="#0C3058" stroke-width="1.5" stroke-linecap="round" stroke-linejoin="round"/>
<path d="M12.75 20.75L8.47727 20.75C5.21607 20.75 3.58546 20.75 2.45307 19.9522C2.12862 19.7236 1.84058 19.4525 1.5977 19.1471C0.75 18.0813 0.75 16.5466 0.75 13.4773V10.9318C0.75 7.96865 0.75 6.48706 1.21894 5.30375C1.97281 3.40142 3.56714 1.90088 5.58836 1.19135C6.84563 0.750001 8.41981 0.75 11.5682 0.75C13.3673 0.75 14.2668 0.75 14.9852 1.0022C16.1402 1.40765 17.0512 2.2651 17.482 3.35214C17.75 4.02832 17.75 4.87494 17.75 6.56818V8.75" stroke="#0C3058" stroke-width="1.5" stroke-linecap="round" stroke-linejoin="round"/>
<path d="M0.75 10.75C0.75 8.90905 2.24238 7.41667 4.08333 7.41667C4.74912 7.41667 5.53404 7.53333 6.18137 7.35988C6.75652 7.20576 7.20576 6.75652 7.35988 6.18136C7.53333 5.53404 7.41667 4.74912 7.41667 4.08333C7.41667 2.24238 8.90905 0.75 10.75 0.75" stroke="#0C3058" stroke-width="1.5" stroke-linecap="round" stroke-linejoin="round"/>
</svg>
