<svg width="20" height="22" viewBox="0 0 20 22" fill="none" xmlns="http://www.w3.org/2000/svg">
<path d="M15.75 5.75C16.5245 5.91058 17.1088 6.17859 17.5784 6.62589C18.75 7.74181 18.75 9.53787 18.75 13.13C18.75 16.7221 18.75 18.5181 17.5784 19.6341C16.4069 20.75 14.5212 20.75 10.75 20.75H8.75C4.97876 20.75 3.09315 20.75 1.92157 19.6341C0.75 18.5181 0.75 16.7221 0.75 13.13C0.75 9.53787 0.75 7.74181 1.92157 6.62589C2.39118 6.17859 2.9755 5.91058 3.75 5.75" stroke="white" stroke-width="1.5" stroke-linecap="round"/>
<path d="M9.77529 0.750524L9.75 12.75M9.77529 0.750524C9.61266 0.743787 9.44906 0.80191 9.30333 0.924916C8.39686 1.69006 6.75 3.67886 6.75 3.67886M9.77529 0.750524C9.92112 0.756565 10.0662 0.814757 10.1968 0.925084C11.1031 1.69037 12.75 3.67886 12.75 3.67886" stroke="white" stroke-width="1.5" stroke-linecap="round" stroke-linejoin="round"/>
</svg>
