<svg width="706" height="405" viewBox="0 0 784 450" fill="none" xmlns="http://www.w3.org/2000/svg">
<g clip-path="url(#clip0_1271_18098)">
<path d="M311.714 179.639L311.714 178.639L311.714 178.639L311.714 179.639ZM213.765 140.405L214.424 141.157L214.425 141.156L213.765 140.405ZM224.555 137.868L224.303 138.835C224.614 138.916 224.944 138.843 225.192 138.638C225.44 138.434 225.574 138.123 225.553 137.802L224.555 137.868ZM233.237 125.988L232.935 125.034L233.237 125.988ZM238.89 125.988L238.488 126.903C238.743 127.015 239.032 127.016 239.287 126.905C239.542 126.795 239.74 126.583 239.833 126.321L238.89 125.988ZM268.377 125.988L267.474 126.417C267.682 126.853 268.172 127.079 268.639 126.953L268.377 125.988ZM286.158 135.047L285.22 135.393C285.389 135.853 285.867 136.123 286.349 136.029L286.158 135.047ZM310.113 154.594L309.187 154.215C309.052 154.544 309.103 154.92 309.319 155.202C309.535 155.484 309.885 155.63 310.238 155.586L310.113 154.594ZM324.47 167.073H323.47C323.47 173.453 318.222 178.639 311.714 178.639V179.639V180.639C319.298 180.639 325.47 174.587 325.47 167.073H324.47ZM311.714 179.639L311.714 178.639L264.876 178.639L264.876 179.639L264.876 180.639L311.714 180.639L311.714 179.639ZM211.244 146.897L212.244 146.897C212.244 145.895 212.206 145.024 212.456 144.091C212.693 143.205 213.21 142.222 214.424 141.157L213.765 140.405L213.105 139.653C211.614 140.962 210.87 142.281 210.524 143.574C210.19 144.822 210.244 146.01 210.244 146.897L211.244 146.897ZM213.765 140.405L214.425 141.156C217.212 138.707 220.93 137.957 224.303 138.835L224.555 137.868L224.807 136.9C220.824 135.862 216.415 136.745 213.105 139.654L213.765 140.405ZM224.555 137.868L225.553 137.802C225.343 134.616 225.968 132.394 227.241 130.751C228.53 129.088 230.591 127.877 233.54 126.941L233.237 125.988L232.935 125.034C229.802 126.029 227.302 127.407 225.66 129.526C224.002 131.666 223.326 134.419 223.557 137.933L224.555 137.868ZM233.237 125.988L233.54 126.941C234.89 126.512 236.827 126.174 238.488 126.903L238.89 125.988L239.292 125.072C236.946 124.042 234.415 124.565 232.935 125.034L233.237 125.988ZM238.89 125.988L239.833 126.321C241.143 122.617 243.153 120.166 245.576 118.63C248.01 117.086 250.941 116.414 254.164 116.414V115.414V114.414C250.672 114.414 247.341 115.142 244.505 116.941C241.657 118.747 239.387 121.583 237.947 125.654L238.89 125.988ZM254.164 115.414V116.414C259.604 116.414 264.552 120.264 267.474 126.417L268.377 125.988L269.281 125.558C266.151 118.97 260.629 114.414 254.164 114.414V115.414ZM268.377 125.988L268.639 126.953C269.804 126.638 271.041 126.465 272.309 126.465V125.465V124.465C270.86 124.465 269.447 124.662 268.116 125.022L268.377 125.988ZM272.309 125.465V126.465C278.255 126.465 283.308 130.193 285.22 135.393L286.158 135.047L287.097 134.702C284.901 128.73 279.108 124.465 272.309 124.465V125.465ZM286.158 135.047L286.349 136.029C287.854 135.736 289.447 135.579 291.084 135.579V134.579V133.579C289.319 133.579 287.599 133.749 285.967 134.066L286.158 135.047ZM291.084 134.579V135.579C301.809 135.579 310.029 142.249 310.029 149.977H311.029H312.029C312.029 140.695 302.402 133.579 291.084 133.579V134.579ZM311.029 149.977H310.029C310.029 151.453 309.736 152.871 309.187 154.215L310.113 154.594L311.038 154.972C311.682 153.398 312.029 151.723 312.029 149.977H311.029ZM310.113 154.594L310.238 155.586C310.713 155.526 311.212 155.496 311.714 155.496V154.496V153.496C311.133 153.496 310.55 153.531 309.988 153.601L310.113 154.594ZM311.714 154.496V155.496C318.221 155.496 323.47 160.691 323.47 167.073H324.47H325.47C325.47 159.56 319.299 153.496 311.714 153.496V154.496Z" fill="#0C3058"/>
<path d="M503.251 141.77C502.699 141.77 502.251 142.218 502.251 142.77C502.251 143.322 502.699 143.77 503.251 143.77V142.77V141.77ZM481.989 117.459C481.989 118.011 482.437 118.459 482.989 118.459C483.542 118.459 483.989 118.011 483.989 117.459H482.989H481.989ZM498.356 103.641L498.56 104.62C499.039 104.52 499.374 104.09 499.355 103.602L498.356 103.641ZM503.388 91.9112L504.049 92.6615L504.049 92.6609L503.388 91.9112ZM517.315 88.6222L517.061 89.5896C517.372 89.671 517.703 89.598 517.951 89.3934C518.199 89.1888 518.333 88.8776 518.312 88.5569L517.315 88.6222ZM528.521 73.222L528.217 72.2692L528.217 72.2692L528.521 73.222ZM535.817 73.222L535.414 74.137C535.669 74.2494 535.959 74.2503 536.214 74.1397C536.47 74.029 536.668 73.8168 536.76 73.5542L535.817 73.222ZM573.877 73.222L572.973 73.6495C573.18 74.0876 573.671 74.314 574.139 74.187L573.877 73.222ZM596.827 84.9662L595.888 85.3101C596.057 85.7716 596.536 86.0419 597.018 85.9477L596.827 84.9662ZM627.745 110.304L626.819 109.927C626.685 110.256 626.736 110.631 626.952 110.913C627.168 111.195 627.518 111.341 627.871 111.296L627.745 110.304ZM646.276 126.481H645.276C645.276 134.924 638.365 141.77 629.812 141.77V142.77V143.77C639.448 143.77 647.276 136.049 647.276 126.481H646.276ZM629.812 142.77V141.77H503.251V142.77V143.77H629.812V142.77ZM482.989 117.459H483.989C483.989 113.846 485.38 111.154 487.843 109.106C490.348 107.023 494.007 105.572 498.56 104.62L498.356 103.641L498.151 102.662C493.453 103.645 489.429 105.186 486.564 107.569C483.656 109.988 481.989 113.238 481.989 117.459H482.989ZM498.356 103.641L499.355 103.602C499.196 99.5863 500.79 95.5326 504.049 92.6615L503.388 91.9112L502.727 91.1609C499 94.4442 497.174 99.0858 497.357 103.681L498.356 103.641ZM503.388 91.9112L504.049 92.6609C507.722 89.4193 512.621 88.4277 517.061 89.5896L517.315 88.6222L517.568 87.6548C512.514 86.3324 506.922 87.4581 502.726 91.1614L503.388 91.9112ZM517.315 88.6222L518.312 88.5569C518.039 84.3768 518.852 81.4177 520.552 79.2143C522.268 76.9909 524.993 75.3964 528.825 74.1747L528.521 73.222L528.217 72.2692C524.199 73.5501 521.036 75.3129 518.969 77.9926C516.886 80.6922 516.022 84.1819 516.317 88.6876L517.315 88.6222ZM528.521 73.222L528.825 74.1747C530.586 73.6132 533.172 73.1489 535.414 74.137L535.817 73.222L536.22 72.3069C533.291 71.0158 530.109 71.6661 528.217 72.2692L528.521 73.222ZM535.817 73.222L536.76 73.5542C538.471 68.6977 541.103 65.4642 544.292 63.4327C547.493 61.3941 551.333 60.5156 555.531 60.5156V59.5156V58.5156C551.062 58.5156 546.821 59.451 543.218 61.7459C539.604 64.048 536.713 67.6676 534.874 72.8898L535.817 73.222ZM555.531 59.5156V60.5156C562.7 60.5156 569.17 65.6084 572.973 73.6495L573.877 73.222L574.781 72.7944C570.773 64.3202 563.729 58.5156 555.531 58.5156V59.5156ZM573.877 73.222L574.139 74.187C575.667 73.772 577.289 73.5444 578.952 73.5444V72.5444V71.5444C577.107 71.5444 575.309 71.7968 573.615 72.257L573.877 73.222ZM578.952 72.5444V73.5444C586.747 73.5444 593.377 78.4537 595.888 85.3101L596.827 84.9662L597.766 84.6224C594.974 76.9961 587.606 71.5444 578.952 71.5444V72.5444ZM596.827 84.9662L597.018 85.9477C598.979 85.5649 601.053 85.3593 603.184 85.3593V84.3593V83.3593C600.925 83.3593 598.723 83.5771 596.635 83.9848L596.827 84.9662ZM603.184 84.3593V85.3593C617.11 85.3593 627.928 94.0685 627.928 104.319H628.928H629.928C629.928 92.5206 617.711 83.3593 603.184 83.3593V84.3593ZM628.928 104.319H627.928C627.928 106.273 627.542 108.15 626.819 109.927L627.745 110.304L628.671 110.681C629.488 108.675 629.928 106.543 629.928 104.319H628.928ZM627.745 110.304L627.871 111.296C628.497 111.217 629.153 111.177 629.812 111.177V110.177V109.177C629.074 109.177 628.333 109.222 627.62 109.312L627.745 110.304ZM629.812 110.177V111.177C638.363 111.177 645.276 118.036 645.276 126.481H646.276H647.276C647.276 116.913 639.45 109.177 629.812 109.177V110.177Z" fill="#0C3058"/>
<path d="M370.249 451.836H502.655V284.798V128.652C502.655 123.174 498.247 118.716 492.77 118.653L419.56 117.812C416.687 117.779 413.938 118.984 412.014 121.119L372.818 164.646C371.164 166.482 370.249 168.866 370.249 171.337V305.212" stroke="#0C3058" stroke-width="2" stroke-miterlimit="10"/>
<path d="M492.524 427.698C492.524 429.907 490.733 431.698 488.524 431.698H450.041C447.831 431.698 446.041 429.907 446.041 427.698V153.822C446.041 151.613 447.831 149.822 450.041 149.822H469.765C471.217 149.822 472.556 150.61 473.261 151.88L488.496 179.298C491.137 184.053 492.524 189.402 492.524 194.84V427.698Z" stroke="#0C3058" stroke-width="2" stroke-miterlimit="10"/>
<path d="M416.039 164H432.859C433.411 164 433.859 163.552 433.859 163V150.323C433.859 149.771 433.411 149.323 432.859 149.323H416.039C415.487 149.323 415.039 149.771 415.039 150.323V163C415.039 163.552 415.487 164 416.039 164Z" stroke="#0C3058" stroke-width="2" stroke-miterlimit="10" stroke-linejoin="round"/>
<path d="M416.039 185.67H432.859C433.411 185.67 433.859 185.222 433.859 184.67V171.993C433.859 171.441 433.411 170.993 432.859 170.993H416.039C415.487 170.993 415.039 171.441 415.039 171.993V184.67C415.039 185.222 415.487 185.67 416.039 185.67Z" stroke="#0C3058" stroke-width="2" stroke-miterlimit="10" stroke-linejoin="round"/>
<path d="M388.269 185.67H405.088C405.641 185.67 406.088 185.222 406.088 184.67V171.993C406.088 171.441 405.641 170.993 405.088 170.993H388.269C387.716 170.993 387.269 171.441 387.269 171.993V184.67C387.269 185.222 387.716 185.67 388.269 185.67Z" stroke="#0C3058" stroke-width="2" stroke-miterlimit="10" stroke-linejoin="round"/>
<path d="M416.039 207.354H432.859C433.411 207.354 433.859 206.906 433.859 206.354V193.677C433.859 193.125 433.411 192.677 432.859 192.677H416.039C415.487 192.677 415.039 193.125 415.039 193.677V206.354C415.039 206.906 415.487 207.354 416.039 207.354Z" stroke="#0C3058" stroke-width="2" stroke-miterlimit="10" stroke-linejoin="round"/>
<path d="M388.269 207.354H405.088C405.641 207.354 406.088 206.906 406.088 206.354V193.677C406.088 193.125 405.641 192.677 405.088 192.677H388.269C387.716 192.677 387.269 193.125 387.269 193.677V206.354C387.269 206.906 387.716 207.354 388.269 207.354Z" stroke="#0C3058" stroke-width="2" stroke-miterlimit="10" stroke-linejoin="round"/>
<path d="M416.039 229.021H432.859C433.411 229.021 433.859 228.574 433.859 228.021V215.345C433.859 214.793 433.411 214.345 432.859 214.345H416.039C415.487 214.345 415.039 214.793 415.039 215.345V228.021C415.039 228.574 415.487 229.021 416.039 229.021Z" stroke="#0C3058" stroke-width="2" stroke-miterlimit="10" stroke-linejoin="round"/>
<path d="M388.269 229.021H405.088C405.641 229.021 406.088 228.574 406.088 228.021V215.345C406.088 214.793 405.641 214.345 405.088 214.345H388.269C387.716 214.345 387.269 214.793 387.269 215.345V228.021C387.269 228.574 387.716 229.021 388.269 229.021Z" stroke="#0C3058" stroke-width="2" stroke-miterlimit="10" stroke-linejoin="round"/>
<path d="M416.039 250.703H432.859C433.411 250.703 433.859 250.255 433.859 249.703V237.027C433.859 236.474 433.411 236.027 432.859 236.027H416.039C415.487 236.027 415.039 236.474 415.039 237.027V249.703C415.039 250.255 415.487 250.703 416.039 250.703Z" stroke="#0C3058" stroke-width="2" stroke-miterlimit="10" stroke-linejoin="round"/>
<path d="M388.269 250.703H405.088C405.641 250.703 406.088 250.255 406.088 249.703V237.027C406.088 236.474 405.641 236.027 405.088 236.027H388.269C387.716 236.027 387.269 236.474 387.269 237.027V249.703C387.269 250.255 387.716 250.703 388.269 250.703Z" stroke="#0C3058" stroke-width="2" stroke-miterlimit="10" stroke-linejoin="round"/>
<path d="M416.039 272.375H432.859C433.411 272.375 433.859 271.927 433.859 271.375V258.698C433.859 258.146 433.411 257.698 432.859 257.698H416.039C415.487 257.698 415.039 258.146 415.039 258.698V271.375C415.039 271.927 415.487 272.375 416.039 272.375Z" stroke="#0C3058" stroke-width="2" stroke-miterlimit="10" stroke-linejoin="round"/>
<path d="M388.269 272.375H405.088C405.641 272.375 406.088 271.927 406.088 271.375V258.698C406.088 258.146 405.641 257.698 405.088 257.698H388.269C387.716 257.698 387.269 258.146 387.269 258.698V271.375C387.269 271.927 387.716 272.375 388.269 272.375Z" stroke="#0C3058" stroke-width="2" stroke-miterlimit="10" stroke-linejoin="round"/>
<path d="M416.039 294.055H432.859C433.411 294.055 433.859 293.607 433.859 293.055V280.378C433.859 279.826 433.411 279.378 432.859 279.378H416.039C415.487 279.378 415.039 279.826 415.039 280.378V293.055C415.039 293.607 415.487 294.055 416.039 294.055Z" stroke="#0C3058" stroke-width="2" stroke-miterlimit="10" stroke-linejoin="round"/>
<path d="M388.269 294.055H405.088C405.641 294.055 406.088 293.607 406.088 293.055V280.378C406.088 279.826 405.641 279.378 405.088 279.378H388.269C387.716 279.378 387.269 279.826 387.269 280.378V293.055C387.269 293.607 387.716 294.055 388.269 294.055Z" stroke="#0C3058" stroke-width="2" stroke-miterlimit="10" stroke-linejoin="round"/>
<path d="M455.576 149.822V432.209" stroke="#0C3058" stroke-width="2" stroke-miterlimit="10"/>
<path d="M466.303 149.822L466.303 431.698" stroke="#0C3058" stroke-width="2" stroke-miterlimit="10"/>
<path d="M48.5508 450.824C47.9985 450.824 47.5508 451.271 47.5508 451.824C47.5508 452.376 47.9985 452.824 48.5508 452.824V451.824V450.824ZM106.552 148.1V149.1H259.15V148.1V147.1H106.552V148.1ZM265.15 451.824V450.824H100.552V451.824V452.824H265.15V451.824ZM100.552 451.824H101.552V154.1H100.552H99.5521V451.824H100.552ZM265.15 154.1H264.15V253.297H265.15H266.15V154.1H265.15ZM100.552 451.824V450.824H48.5508V451.824V452.824H100.552V451.824ZM259.15 148.1V149.1C261.911 149.1 264.15 151.338 264.15 154.1H265.15H266.15C266.15 150.234 263.016 147.1 259.15 147.1V148.1ZM106.552 148.1V147.1C102.686 147.1 99.5521 150.234 99.5521 154.1H100.552H101.552C101.552 151.338 103.791 149.1 106.552 149.1V148.1Z" fill="#0C3058"/>
<path d="M100.731 163.68H265.21" stroke="#0C3058" stroke-width="2" stroke-miterlimit="10"/>
<path d="M524.782 202.236H709.523" stroke="#0C3058" stroke-width="2" stroke-miterlimit="10"/>
<path d="M182.637 177.26L182.637 393.126" stroke="#0C3058" stroke-width="2" stroke-miterlimit="10" stroke-linecap="round"/>
<path d="M131.197 177.43H113.423C112.871 177.43 112.423 177.877 112.423 178.43V196.161C112.423 196.713 112.871 197.161 113.423 197.161H131.197C131.749 197.161 132.197 196.713 132.197 196.161V178.43C132.197 177.877 131.749 177.43 131.197 177.43Z" stroke="#0C3058" stroke-width="2" stroke-miterlimit="10" stroke-linejoin="round"/>
<path d="M167.811 177.43H150.038C149.485 177.43 149.038 177.877 149.038 178.43V196.161C149.038 196.713 149.485 197.161 150.038 197.161H167.811C168.363 197.161 168.811 196.713 168.811 196.161V178.43C168.811 177.877 168.363 177.43 167.811 177.43Z" stroke="#0C3058" stroke-width="2" stroke-miterlimit="10" stroke-linejoin="round"/>
<path d="M131.197 216.453H113.423C112.871 216.453 112.423 216.901 112.423 217.453V235.184C112.423 235.737 112.871 236.184 113.423 236.184H131.197C131.749 236.184 132.197 235.737 132.197 235.184V217.453C132.197 216.901 131.749 216.453 131.197 216.453Z" stroke="#0C3058" stroke-width="2" stroke-miterlimit="10" stroke-linejoin="round"/>
<path d="M167.811 216.453H150.038C149.485 216.453 149.038 216.901 149.038 217.453V235.184C149.038 235.737 149.485 236.184 150.038 236.184H167.811C168.363 236.184 168.811 235.737 168.811 235.184V217.453C168.811 216.901 168.363 216.453 167.811 216.453Z" stroke="#0C3058" stroke-width="2" stroke-miterlimit="10" stroke-linejoin="round"/>
<path d="M131.197 255.473H113.423C112.871 255.473 112.423 255.92 112.423 256.473V274.204C112.423 274.756 112.871 275.204 113.423 275.204H131.197C131.749 275.204 132.197 274.756 132.197 274.204V256.473C132.197 255.92 131.749 255.473 131.197 255.473Z" stroke="#0C3058" stroke-width="2" stroke-miterlimit="10" stroke-linejoin="round"/>
<path d="M167.811 255.473H150.038C149.485 255.473 149.038 255.92 149.038 256.473V274.204C149.038 274.756 149.485 275.204 150.038 275.204H167.811C168.363 275.204 168.811 274.756 168.811 274.204V256.473C168.811 255.92 168.363 255.473 167.811 255.473Z" stroke="#0C3058" stroke-width="2" stroke-miterlimit="10" stroke-linejoin="round"/>
<path d="M131.197 294.484H113.423C112.871 294.484 112.423 294.932 112.423 295.484V313.216C112.423 313.768 112.871 314.216 113.423 314.216H131.197C131.749 314.216 132.197 313.768 132.197 313.216V295.484C132.197 294.932 131.749 294.484 131.197 294.484Z" stroke="#0C3058" stroke-width="2" stroke-miterlimit="10" stroke-linejoin="round"/>
<path d="M167.811 294.484H150.038C149.485 294.484 149.038 294.932 149.038 295.484V313.216C149.038 313.768 149.485 314.216 150.038 314.216H167.811C168.363 314.216 168.811 313.768 168.811 313.216V295.484C168.811 294.932 168.363 294.484 167.811 294.484Z" stroke="#0C3058" stroke-width="2" stroke-miterlimit="10" stroke-linejoin="round"/>
<path d="M131.197 333.508H113.423C112.871 333.508 112.423 333.956 112.423 334.508V352.239C112.423 352.792 112.871 353.239 113.423 353.239H131.197C131.749 353.239 132.197 352.792 132.197 352.239V334.508C132.197 333.956 131.749 333.508 131.197 333.508Z" stroke="#0C3058" stroke-width="2" stroke-miterlimit="10" stroke-linejoin="round"/>
<path d="M167.811 333.508H150.038C149.485 333.508 149.038 333.956 149.038 334.508V352.239C149.038 352.792 149.485 353.239 150.038 353.239H167.811C168.363 353.239 168.811 352.792 168.811 352.239V334.508C168.811 333.956 168.363 333.508 167.811 333.508Z" stroke="#0C3058" stroke-width="2" stroke-miterlimit="10" stroke-linejoin="round"/>
<path d="M215.653 177.43H197.879C197.327 177.43 196.879 177.877 196.879 178.43V196.161C196.879 196.713 197.327 197.161 197.879 197.161H215.653C216.205 197.161 216.653 196.713 216.653 196.161V178.43C216.653 177.877 216.205 177.43 215.653 177.43Z" stroke="#0C3058" stroke-width="2" stroke-miterlimit="10" stroke-linejoin="round"/>
<path d="M252.267 177.43H234.494C233.941 177.43 233.494 177.877 233.494 178.43V196.161C233.494 196.713 233.941 197.161 234.494 197.161H252.267C252.819 197.161 253.267 196.713 253.267 196.161V178.43C253.267 177.877 252.819 177.43 252.267 177.43Z" stroke="#0C3058" stroke-width="2" stroke-miterlimit="10" stroke-linejoin="round"/>
<path d="M215.652 216.453H197.879C197.327 216.453 196.879 216.901 196.879 217.453V235.184C196.879 235.737 197.327 236.184 197.879 236.184H215.652C216.204 236.184 216.652 235.737 216.652 235.184V217.453C216.652 216.901 216.204 216.453 215.652 216.453Z" stroke="#0C3058" stroke-width="2" stroke-miterlimit="10" stroke-linejoin="round"/>
<path d="M252.267 216.453H234.494C233.941 216.453 233.494 216.901 233.494 217.453V235.184C233.494 235.737 233.941 236.184 234.494 236.184H252.267C252.819 236.184 253.267 235.737 253.267 235.184V217.453C253.267 216.901 252.819 216.453 252.267 216.453Z" stroke="#0C3058" stroke-width="2" stroke-miterlimit="10" stroke-linejoin="round"/>
<path d="M215.652 255.473H197.879C197.327 255.473 196.879 255.92 196.879 256.473V274.204C196.879 274.756 197.327 275.204 197.879 275.204H215.652C216.204 275.204 216.652 274.756 216.652 274.204V256.473C216.652 255.92 216.204 255.473 215.652 255.473Z" stroke="#0C3058" stroke-width="2" stroke-miterlimit="10" stroke-linejoin="round"/>
<path d="M252.267 255.473H234.494C233.941 255.473 233.494 255.92 233.494 256.473V274.204C233.494 274.756 233.941 275.204 234.494 275.204H252.267C252.819 275.204 253.267 274.756 253.267 274.204V256.473C253.267 255.92 252.819 255.473 252.267 255.473Z" stroke="#0C3058" stroke-width="2" stroke-miterlimit="10" stroke-linejoin="round"/>
<path d="M215.652 294.484H197.879C197.327 294.484 196.879 294.932 196.879 295.484V313.216C196.879 313.768 197.327 314.216 197.879 314.216H215.652C216.204 314.216 216.652 313.768 216.652 313.216V295.484C216.652 294.932 216.204 294.484 215.652 294.484Z" stroke="#0C3058" stroke-width="2" stroke-miterlimit="10" stroke-linejoin="round"/>
<path d="M252.267 294.484H234.494C233.941 294.484 233.494 294.932 233.494 295.484V313.216C233.494 313.768 233.941 314.216 234.494 314.216H252.267C252.819 314.216 253.267 313.768 253.267 313.216V295.484C253.267 294.932 252.819 294.484 252.267 294.484Z" stroke="#0C3058" stroke-width="2" stroke-miterlimit="10" stroke-linejoin="round"/>
<path d="M215.652 332.982H197.879C197.327 332.982 196.879 333.43 196.879 333.982V351.714C196.879 352.266 197.327 352.714 197.879 352.714H215.652C216.204 352.714 216.652 352.266 216.652 351.714V333.982C216.652 333.43 216.204 332.982 215.652 332.982Z" stroke="#0C3058" stroke-width="2" stroke-miterlimit="10" stroke-linejoin="round"/>
<path d="M252.267 332.982H234.494C233.941 332.982 233.494 333.43 233.494 333.982V351.714C233.494 352.266 233.941 352.714 234.494 352.714H252.267C252.819 352.714 253.267 352.266 253.267 351.714V333.982C253.267 333.43 252.819 332.982 252.267 332.982Z" stroke="#0C3058" stroke-width="2" stroke-miterlimit="10" stroke-linejoin="round"/>
<path d="M172.148 403.155H192.327C196.984 403.155 200.77 406.273 200.77 410.109V451.836H163.722V410.096C163.722 406.273 167.491 403.168 172.132 403.168L172.148 403.155Z" stroke="#0C3058" stroke-width="2" stroke-miterlimit="10"/>
<path d="M701.523 185.586H532.782C528.364 185.586 524.782 189.168 524.782 193.586V452H709.523V193.586C709.523 189.168 705.941 185.586 701.523 185.586Z" stroke="#0C3058" stroke-width="2" stroke-miterlimit="10"/>
<path d="M647.043 427.023H587.106C584.897 427.023 583.106 428.814 583.106 431.023V452H651.043V431.023C651.043 428.814 649.252 427.023 647.043 427.023Z" stroke="#0C3058" stroke-width="2" stroke-miterlimit="10"/>
<path d="M617.749 427.023L617.749 452" stroke="#0C3058" stroke-width="2" stroke-miterlimit="10"/>
<path d="M564.229 216.51H538.815C538.263 216.51 537.815 216.957 537.815 217.51V234.539C537.815 235.092 538.263 235.539 538.815 235.539H564.229C564.781 235.539 565.229 235.092 565.229 234.539V217.51C565.229 216.957 564.781 216.51 564.229 216.51Z" stroke="#0C3058" stroke-width="2" stroke-miterlimit="10" stroke-linejoin="round"/>
<path d="M564.229 258.137H538.815C538.263 258.137 537.815 258.584 537.815 259.137V276.166C537.815 276.719 538.263 277.166 538.815 277.166H564.229C564.781 277.166 565.229 276.719 565.229 276.166V259.137C565.229 258.584 564.781 258.137 564.229 258.137Z" stroke="#0C3058" stroke-width="2" stroke-miterlimit="10" stroke-linejoin="round"/>
<path d="M564.229 300.953H538.815C538.263 300.953 537.815 301.401 537.815 301.953V318.983C537.815 319.535 538.263 319.983 538.815 319.983H564.229C564.781 319.983 565.229 319.535 565.229 318.983V301.953C565.229 301.401 564.781 300.953 564.229 300.953Z" stroke="#0C3058" stroke-width="2" stroke-miterlimit="10" stroke-linejoin="round"/>
<path d="M564.229 342.58H538.815C538.263 342.58 537.815 343.028 537.815 343.58V360.61C537.815 361.162 538.263 361.61 538.815 361.61H564.229C564.781 361.61 565.229 361.162 565.229 360.61V343.58C565.229 343.028 564.781 342.58 564.229 342.58Z" stroke="#0C3058" stroke-width="2" stroke-miterlimit="10" stroke-linejoin="round"/>
<path d="M564.229 385.397H538.815C538.263 385.397 537.815 385.844 537.815 386.397V403.426C537.815 403.978 538.263 404.426 538.815 404.426H564.229C564.781 404.426 565.229 403.978 565.229 403.426V386.397C565.229 385.844 564.781 385.397 564.229 385.397Z" stroke="#0C3058" stroke-width="2" stroke-miterlimit="10" stroke-linejoin="round"/>
<path d="M608.328 216.51H582.915C582.362 216.51 581.915 216.957 581.915 217.51V234.539C581.915 235.092 582.362 235.539 582.915 235.539H608.328C608.88 235.539 609.328 235.092 609.328 234.539V217.51C609.328 216.957 608.88 216.51 608.328 216.51Z" stroke="#0C3058" stroke-width="2" stroke-miterlimit="10" stroke-linejoin="round"/>
<path d="M608.328 258.137H582.915C582.362 258.137 581.915 258.584 581.915 259.137V276.166C581.915 276.719 582.362 277.166 582.915 277.166H608.328C608.88 277.166 609.328 276.719 609.328 276.166V259.137C609.328 258.584 608.88 258.137 608.328 258.137Z" stroke="#0C3058" stroke-width="2" stroke-miterlimit="10" stroke-linejoin="round"/>
<path d="M608.328 300.953H582.915C582.362 300.953 581.915 301.401 581.915 301.953V318.983C581.915 319.535 582.362 319.983 582.915 319.983H608.328C608.88 319.983 609.328 319.535 609.328 318.983V301.953C609.328 301.401 608.88 300.953 608.328 300.953Z" stroke="#0C3058" stroke-width="2" stroke-miterlimit="10" stroke-linejoin="round"/>
<path d="M608.328 342.58H582.915C582.362 342.58 581.915 343.028 581.915 343.58V360.61C581.915 361.162 582.362 361.61 582.915 361.61H608.328C608.88 361.61 609.328 361.162 609.328 360.61V343.58C609.328 343.028 608.88 342.58 608.328 342.58Z" stroke="#0C3058" stroke-width="2" stroke-miterlimit="10" stroke-linejoin="round"/>
<path d="M608.328 385.397H582.915C582.362 385.397 581.915 385.844 581.915 386.397V403.426C581.915 403.978 582.362 404.426 582.915 404.426H608.328C608.88 404.426 609.328 403.978 609.328 403.426V386.397C609.328 385.844 608.88 385.397 608.328 385.397Z" stroke="#0C3058" stroke-width="2" stroke-miterlimit="10" stroke-linejoin="round"/>
<path d="M652.427 216.51H627.014C626.462 216.51 626.014 216.957 626.014 217.51V234.539C626.014 235.092 626.462 235.539 627.014 235.539H652.427C652.98 235.539 653.427 235.092 653.427 234.539V217.51C653.427 216.957 652.98 216.51 652.427 216.51Z" stroke="#0C3058" stroke-width="2" stroke-miterlimit="10" stroke-linejoin="round"/>
<path d="M652.427 258.137H627.014C626.462 258.137 626.014 258.584 626.014 259.137V276.166C626.014 276.719 626.462 277.166 627.014 277.166H652.427C652.98 277.166 653.427 276.719 653.427 276.166V259.137C653.427 258.584 652.98 258.137 652.427 258.137Z" stroke="#0C3058" stroke-width="2" stroke-miterlimit="10" stroke-linejoin="round"/>
<path d="M652.427 300.953H627.014C626.462 300.953 626.014 301.401 626.014 301.953V318.983C626.014 319.535 626.462 319.983 627.014 319.983H652.427C652.98 319.983 653.427 319.535 653.427 318.983V301.953C653.427 301.401 652.98 300.953 652.427 300.953Z" stroke="#0C3058" stroke-width="2" stroke-miterlimit="10" stroke-linejoin="round"/>
<path d="M652.427 342.58H627.014C626.462 342.58 626.014 343.028 626.014 343.58V360.61C626.014 361.162 626.462 361.61 627.014 361.61H652.427C652.98 361.61 653.427 361.162 653.427 360.61V343.58C653.427 343.028 652.98 342.58 652.427 342.58Z" stroke="#0C3058" stroke-width="2" stroke-miterlimit="10" stroke-linejoin="round"/>
<path d="M652.427 385.397H627.014C626.462 385.397 626.014 385.844 626.014 386.397V403.426C626.014 403.978 626.462 404.426 627.014 404.426H652.427C652.98 404.426 653.427 403.978 653.427 403.426V386.397C653.427 385.844 652.98 385.397 652.427 385.397Z" stroke="#0C3058" stroke-width="2" stroke-miterlimit="10" stroke-linejoin="round"/>
<path d="M696.526 216.51H671.113C670.561 216.51 670.113 216.957 670.113 217.51V234.539C670.113 235.092 670.561 235.539 671.113 235.539H696.526C697.079 235.539 697.526 235.092 697.526 234.539V217.51C697.526 216.957 697.079 216.51 696.526 216.51Z" stroke="#0C3058" stroke-width="2" stroke-miterlimit="10" stroke-linejoin="round"/>
<path d="M696.526 258.137H671.113C670.561 258.137 670.113 258.584 670.113 259.137V276.166C670.113 276.719 670.561 277.166 671.113 277.166H696.526C697.079 277.166 697.526 276.719 697.526 276.166V259.137C697.526 258.584 697.079 258.137 696.526 258.137Z" stroke="#0C3058" stroke-width="2" stroke-miterlimit="10" stroke-linejoin="round"/>
<path d="M696.526 300.953H671.113C670.561 300.953 670.113 301.401 670.113 301.953V318.983C670.113 319.535 670.561 319.983 671.113 319.983H696.526C697.079 319.983 697.526 319.535 697.526 318.983V301.953C697.526 301.401 697.079 300.953 696.526 300.953Z" stroke="#0C3058" stroke-width="2" stroke-miterlimit="10" stroke-linejoin="round"/>
<path d="M696.526 342.58H671.113C670.561 342.58 670.113 343.028 670.113 343.58V360.61C670.113 361.162 670.561 361.61 671.113 361.61H696.526C697.079 361.61 697.526 361.162 697.526 360.61V343.58C697.526 343.028 697.079 342.58 696.526 342.58Z" stroke="#0C3058" stroke-width="2" stroke-miterlimit="10" stroke-linejoin="round"/>
<path d="M696.526 385.397H671.113C670.561 385.397 670.113 385.844 670.113 386.397V403.426C670.113 403.978 670.561 404.426 671.113 404.426H696.526C697.079 404.426 697.526 403.978 697.526 403.426V386.397C697.526 385.844 697.079 385.397 696.526 385.397Z" stroke="#0C3058" stroke-width="2" stroke-miterlimit="10" stroke-linejoin="round"/>
<path d="M403.955 451.833H348.45V297.836L398.629 315.631C401.822 316.763 403.955 319.783 403.955 323.171V451.833Z" stroke="#0C3058" stroke-width="2" stroke-miterlimit="10"/>
<path d="M370.222 390.152H361.111C360.007 390.152 359.111 391.048 359.111 392.152V416.697C359.111 417.801 360.007 418.697 361.111 418.697H370.222C371.327 418.697 372.222 417.801 372.222 416.697V392.152C372.222 391.048 371.327 390.152 370.222 390.152Z" stroke="#0C3058" stroke-width="2" stroke-miterlimit="10"/>
<path d="M389.292 390.152H380.181C379.077 390.152 378.181 391.048 378.181 392.152V416.697C378.181 417.801 379.077 418.697 380.181 418.697H389.292C390.396 418.697 391.292 417.801 391.292 416.697V392.152C391.292 391.048 390.396 390.152 389.292 390.152Z" stroke="#0C3058" stroke-width="2" stroke-miterlimit="10"/>
<path d="M391.733 451.547H359.553V436.953V431.76C359.553 429.551 361.344 427.76 363.553 427.76H387.733C389.942 427.76 391.733 429.551 391.733 431.76V451.547Z" stroke="#0C3058" stroke-width="2" stroke-miterlimit="10"/>
<path d="M391.733 436.086H359.553" stroke="#0C3058" stroke-width="2" stroke-miterlimit="10"/>
<path d="M359.189 379.367H371.108" stroke="#0C3058" stroke-width="2" stroke-miterlimit="10" stroke-linecap="round"/>
<path d="M359.189 371.041H371.108" stroke="#0C3058" stroke-width="2" stroke-miterlimit="10" stroke-linecap="round"/>
<path d="M359.189 362.717H371.108" stroke="#0C3058" stroke-width="2" stroke-miterlimit="10" stroke-linecap="round"/>
<path d="M359.189 355.58H371.108" stroke="#0C3058" stroke-width="2" stroke-miterlimit="10" stroke-linecap="round"/>
<path d="M359.189 347.254H371.108" stroke="#0C3058" stroke-width="2" stroke-miterlimit="10" stroke-linecap="round"/>
<path d="M359.189 338.93H371.108" stroke="#0C3058" stroke-width="2" stroke-miterlimit="10" stroke-linecap="round"/>
<path d="M359.189 330.603H371.108" stroke="#0C3058" stroke-width="2" stroke-miterlimit="10" stroke-linecap="round"/>
<path d="M359.189 322.277H371.108" stroke="#0C3058" stroke-width="2" stroke-miterlimit="10" stroke-linecap="round"/>
<path d="M379.451 379.367H391.369" stroke="#0C3058" stroke-width="2" stroke-miterlimit="10" stroke-linecap="round"/>
<path d="M379.451 371.041H391.369" stroke="#0C3058" stroke-width="2" stroke-miterlimit="10" stroke-linecap="round"/>
<path d="M379.451 362.717H391.369" stroke="#0C3058" stroke-width="2" stroke-miterlimit="10" stroke-linecap="round"/>
<path d="M379.451 355.58H391.369" stroke="#0C3058" stroke-width="2" stroke-miterlimit="10" stroke-linecap="round"/>
<path d="M379.451 347.254H391.369" stroke="#0C3058" stroke-width="2" stroke-miterlimit="10" stroke-linecap="round"/>
<path d="M379.451 338.93H391.369" stroke="#0C3058" stroke-width="2" stroke-miterlimit="10" stroke-linecap="round"/>
<path d="M379.451 330.603H391.369" stroke="#0C3058" stroke-width="2" stroke-miterlimit="10" stroke-linecap="round"/>
<path d="M342.462 253.297H266.264C262.95 253.297 260.264 255.983 260.264 259.297V451.918H348.462V259.297C348.462 255.983 345.776 253.297 342.462 253.297Z" stroke="#0C3058" stroke-width="2" stroke-miterlimit="10"/>
<path d="M270.931 252.857V399.154C270.931 401.364 272.722 403.154 274.931 403.154H332.544C334.753 403.154 336.544 401.364 336.544 399.154V252.857" stroke="#0C3058" stroke-width="2" stroke-miterlimit="10"/>
<path d="M303.612 253.377L303.612 403.235" stroke="#0C3058" stroke-width="2" stroke-miterlimit="10"/>
<path d="M270.991 284.301H335.352" stroke="#0C3058" stroke-width="2" stroke-miterlimit="10"/>
<path d="M270.991 316.414H336.544" stroke="#0C3058" stroke-width="2" stroke-miterlimit="10"/>
<path d="M270.991 347.336H336.544" stroke="#0C3058" stroke-width="2" stroke-miterlimit="10"/>
<path d="M270.931 376.025L336.544 375.8" stroke="#0C3058" stroke-width="2" stroke-miterlimit="10"/>
<path d="M299.923 422.203L307.547 422.184C313.472 422.203 315.09 426.234 315.09 431.238V451.917H292.444V431.18C292.444 426.234 294.871 422.203 299.923 422.203Z" stroke="#0C3058" stroke-width="2" stroke-miterlimit="10"/>
</g>
<defs>
<clipPath id="clip0_1271_18098">
<rect width="784" height="450" fill="white"/>
</clipPath>
</defs>
</svg>
