<svg width="732" height="365" viewBox="0 0 732 365" fill="none" xmlns="http://www.w3.org/2000/svg">
<path d="M220.85 282.539C228.416 281.459 239.509 280.403 246.679 279.363C253.849 278.324 262.423 277.261 269.525 276.713C281.972 275.754 288.115 276.061 289.316 275.887C289.933 275.817 290.564 275.785 291.094 275.721C291.623 275.656 329.4 274.538 330.014 274.44C377.57 280.919 405.294 349.623 445.274 358.722C402.306 352.217 348.572 362.988 218.148 362.988M315.964 240.351C307.27 242.174 296.279 241.804 278.193 242.915C260.106 244.026 239.947 243.473 228.69 242.561C215.071 241.457 211.93 240.733 210.046 240.351C205.727 239.473 203.723 238.236 197.399 236.322C190.527 234.242 186.967 233.583 186.264 233.404C152.317 231.016 108.101 225.313 98.7648 211.969M25.2205 358.722C27.9553 358.98 70.4889 359.343 83.8785 359.741C92.483 359.997 104.77 360.01 114.031 360.213C129.162 360.545 136.812 361.232 140.445 361.588C148.937 362.419 155.15 362.469 160.072 362.916C166.341 363.485 170.396 363.949 180.867 363.999C190.285 364.044 208.42 362.937 218.148 362.916M629.943 340.311C630.27 340.551 630.852 341.216 632.645 341.931C633.207 342.154 633.82 342.333 637.462 342.505C641.103 342.677 647.69 342.863 651.347 343.004C655.005 343.145 655.532 343.236 664.973 343.225C674.413 343.215 692.75 343.1 705.667 343.441C718.584 343.782 726.137 343.441 731.001 343.441M186.264 234.484C186.492 234.57 189.71 235.808 192.494 238.041C194.026 239.27 194.563 240.092 195.42 241.206C197.073 243.357 198.373 244.773 198.733 245.217C199.83 246.574 200.612 246.956 203.52 248.814C204.361 249.352 205.169 249.655 206.523 250.352C207.876 251.049 209.781 252.08 210.852 252.678C212.115 253.383 213.856 254.333 216.421 255.595C217.414 256.07 217.78 256.209 218.068 256.317C218.355 256.425 218.553 256.498 219.132 256.678M185.786 233.752C185.842 233.843 185.967 234.052 186.167 234.401M186.167 234.401C186.396 234.803 186.722 235.389 187.149 236.19C188.125 238.021 188.487 239.382 188.914 240.616C189.895 243.45 190.876 245.36 191.152 245.807C192.048 247.257 192.642 248.281 193.618 249.706C194.137 250.468 194.488 250.98 194.696 251.231C194.818 251.373 194.973 251.541 195.39 251.94M186.167 234.401C186.33 234.067 186.466 233.785 186.552 233.575M186.167 234.401C185.818 235.114 185.344 236.059 184.968 237.02C184.628 237.889 184.347 239.475 183.482 241.978C182.326 245.324 182.057 247.711 181.966 248.363C181.694 250.302 181.104 253.529 180.911 257.028C180.873 257.895 180.846 258.346 180.808 258.797C180.784 259.015 180.749 259.208 180.714 259.57M332.172 274.441C333.696 272.988 337.214 268.17 341.91 258.093C344.098 253.397 354.461 244.724 361.899 238.804M337.67 275.299C339.299 274.647 345.015 271.088 348.259 267.611C352.034 263.563 354.889 259.533 359.617 255.737C360.668 254.939 361.343 254.512 362.606 253.916C363.869 253.319 365.698 252.566 368.269 251.512M351.079 280.745C351.717 280.312 353.763 278.208 356.638 274.748C361.17 268.187 362.553 266.271 363.605 265.528C364.158 265.199 364.75 264.969 366.186 264.314M381.704 180.357C381.99 180.873 383.619 184.151 384.784 186.834C385.218 187.834 385.439 190.277 385.763 194.654C385.873 200.34 385.913 203.9 385.973 204.565M282.147 42.026C284.609 50.0033 284.348 65.6602 283.876 71.6559C282.907 83.9615 281.932 87.6813 281.594 89.3198C270.786 141.693 239.391 160.545 230.578 169.153M127.359 20.1314C138.167 19.0512 147.103 21.6265 154.92 25.5308C162.486 29.3095 171.893 39.119 172.214 39.569C172.779 40.3629 177.508 46.1664 178.858 47.6868M178.858 47.6868C178.749 47.4894 178.655 47.3147 178.552 47.144M178.858 47.6868C178.967 47.8841 179.088 48.0989 179.375 48.4828M230.578 169.151C266.497 157.643 317.584 70.3445 264.222 13.1113C217.407 -19.723 185.347 21.3454 178.55 51.667C169.93 44.2522 151.677 15.81 122.755 20.6694C86.6348 22.9418 84.1933 74.4451 97.1114 111.378C110.31 149.115 147.216 167.326 174.569 179.505M174.569 179.505C176.338 180.292 178.066 181.054 179.746 181.795L179.894 181.86C198.693 186.97 209.502 185.349 194.91 184.809C190.438 184.643 183.211 182.527 174.569 179.505ZM174.569 179.505C144.601 169.022 97.63 147.638 89.6073 158.904C88.0664 161.068 90.5626 164.212 94.7729 167.607M94.7729 167.607C96.6751 169.141 98.9272 170.727 101.315 172.296M94.7729 167.607C96.9702 169.18 99.1541 170.753 101.315 172.296M94.7729 167.607C72.7542 151.851 49.391 136.208 34.5277 152.628C33.3145 153.968 33.5386 155.693 34.8316 157.683M101.315 172.296C110.754 178.501 120.333 184.753 122.755 186.022C116.173 182.734 108.886 177.703 101.315 172.296ZM34.8316 157.683C38.4612 163.268 50.5132 170.936 62.8362 178.033M34.8316 157.683C35.7756 158.64 36.7068 159.658 37.6199 160.737C43.1246 165.504 52.9318 171.95 62.8362 178.033M34.8316 157.683C16.1069 138.7 -7.65249 143.633 4.16244 163.098C19.4205 188.232 75.9265 230.781 106.591 255.892C127.196 272.766 205.719 286.858 220.931 282.584M62.8362 178.033C76.8366 186.095 91.1869 193.419 93.9333 196.108C93.9333 196.108 78.2668 187.51 62.8362 178.033ZM98.7648 211.969C97.5487 210.231 96.9611 208.372 97.1114 206.386M98.7648 211.969C95.5542 208.484 97.1114 206.386 97.1114 206.386M98.7648 211.969C99.893 213.193 101.61 214.589 104.19 216.125C112.136 220.854 128.739 228.07 132.235 220.288C140.673 201.495 97.1114 206.386 97.1114 206.386M97.1114 206.386C100.474 199.202 114.696 188.243 131.23 189.337C147.318 190.401 157.712 195.52 166.041 195.778C180.75 196.233 217.305 186.332 264.222 170.539C302.539 157.641 335.572 156.31 356.947 162.908C367.731 166.239 387.801 186.818 404.832 198.404C429.424 215.132 454.55 229.359 495.8 249.881C528.42 266.108 601.842 318.714 630.523 340.774" stroke="#0C3058" stroke-width="2" stroke-linecap="round" stroke-linejoin="round"/>
</svg>
