<svg width="492" height="405" viewBox="0 0 492 405" fill="none" xmlns="http://www.w3.org/2000/svg">
<g clip-path="url(#clip0_673_4305)">
<path fill-rule="evenodd" clip-rule="evenodd" d="M215.426 66.9301C214.964 66.591 214.864 65.9409 215.203 65.4789C215.542 65.0168 216.192 64.9165 216.654 65.2556C221.161 68.5594 225.67 71.8647 230.037 74.8604C234.39 77.8463 238.607 80.5298 242.549 82.6056C249.458 86.2443 255.586 88.0404 261.394 89.7446L263.799 90.4525C267.054 91.4248 270.273 92.4606 273.675 93.6377C277.05 94.8049 280.542 96.088 284.369 97.5661C290.411 99.8977 297.463 102.779 303.904 105.412L308.678 107.356C312.467 108.898 315.849 110.261 318.832 111.386C321.838 112.521 324.512 113.445 326.898 114.118C329.256 114.782 331.332 115.199 333.266 115.426C335.202 115.654 336.995 115.693 338.786 115.603C340.578 115.512 342.365 115.295 343.989 114.877C345.216 114.56 346.351 114.128 347.317 113.545C344.02 111.031 340.013 107.985 334.796 104.23C328.041 99.3664 319.117 93.2123 310.034 86.9481C303.892 82.713 297.676 78.4257 291.873 74.3574L290.653 73.4996C288.422 72.1021 286.329 70.7031 284.314 69.355C280.512 66.8128 265.325 55.82 261.654 54.0098C257.154 50.1948 252.71 48.8423 250.154 47.5098C247.468 46.1038 238.934 47.0272 238.039 46.0098C237.673 45.5929 238.126 45.8962 238.034 45.5076C237.877 44.8378 237.561 45.2758 238.034 44.8279L238.039 44.8236C238.365 44.5142 238.831 44.2909 239.402 44.1467C240.5 43.8698 242.164 43.8472 244.011 44.0167C245.945 44.1934 248.107 44.5777 250.776 45.5076C253.417 46.4275 256.552 47.8801 260.453 50.1948C266.071 53.5283 273.312 58.6691 282.287 65.0408C285.312 67.1887 288.532 69.4751 291.763 71.7474C292.847 72.4257 293.964 73.1039 295.123 73.778C299.14 76.111 303.66 78.3762 308.096 80.4337C312.526 82.4883 316.888 84.3423 320.582 85.8501C324.582 87.4836 327.792 88.7074 330.638 89.7926C333.002 90.6942 335.113 91.4996 337.349 92.4196C339.922 93.478 342.484 94.6226 344.718 95.7842C346.656 96.7917 348.384 97.8289 349.712 98.8577C351.227 100.031 352.223 101.195 352.826 102.43C353.445 103.7 353.64 105.015 353.544 106.463C353.445 107.952 353.03 109.594 352.257 111.113C351.832 111.947 351.298 112.748 350.646 113.469C353.465 115.609 355.768 117.321 358.019 118.782C360.527 120.412 363.001 121.753 365.301 122.783C367.704 123.858 369.914 124.592 371.771 124.953C373.526 125.295 374.951 125.302 376.26 125.096L376.292 125.092C377.6 124.881 378.842 124.446 380.195 123.916L380.269 123.886C379.55 123.085 378.864 122.202 378.202 121.264C377.123 119.735 376.096 118.036 375.092 116.324C374.094 114.617 373.12 112.893 372.368 111.239C371.586 109.519 371.039 107.87 370.937 106.384C370.9 105.852 370.924 105.355 370.946 104.859C371.03 103.011 371.114 101.178 366.462 97.3414C363.225 94.6721 360.686 90.5472 353.544 85.8501C347.207 81.6829 336.641 77.1906 327.897 71.0648C320.926 66.1812 313.246 60.5895 305.67 55.0615C302.086 52.7596 298.819 50.729 295.735 48.9371C291.188 46.2961 285.654 40.3359 283.654 39.5098C280.654 37.0098 276.744 34.5098 272.654 31.5098C268.564 28.5098 266.654 26.5098 254.072 24.4482C252.475 24.1864 256.228 21.9752 259.528 22.7341C262.291 23.37 266.613 25.361 273.453 29.7261C281.553 34.8966 293.268 43.4458 305.382 52.2848L306.75 53.2838C308.464 54.3846 310.247 55.5448 312.115 56.7685C315.619 59.0662 319.753 61.809 324.038 64.6536C332.899 70.5335 342.433 76.8628 350.84 82.1562C357.639 86.4379 363.634 90.0074 368.733 93.0442C373.14 95.6683 376.894 97.9052 379.765 99.7507C383.018 101.842 385.343 103.556 387.018 105.152C388.762 106.815 389.811 108.358 390.452 110.054C391.098 111.762 391.318 113.613 391.126 115.387C390.934 117.163 390.328 118.869 389.323 120.29C388.324 121.703 386.947 122.815 385.438 123.723C384.966 124.007 384.483 124.268 383.997 124.514C384.873 125.155 385.795 125.637 386.762 125.952C388.007 126.357 389.342 126.487 390.766 126.321C392.326 126.14 393.983 125.609 395.419 124.705C396.638 123.936 397.696 122.892 398.39 121.559C399.146 120.105 399.479 118.291 399.409 116.417C399.338 114.505 398.846 112.543 397.956 110.842C396.481 108.023 393.805 105.8 387.853 100.854C386.55 99.7719 385.089 98.5581 383.307 97.0588C378.133 92.7036 371.309 86.8096 364.575 80.8265C358.941 75.8199 353.294 70.6847 348.606 66.225C346.237 63.9711 344.104 61.8811 342.131 59.9452C335.667 53.6088 330.916 48.9527 324.336 44.9861C319.918 42.3224 314.634 39.9414 309.132 37.4628C303.88 35.0973 298.432 32.6427 293.305 29.7529C283.886 24.4482 275.606 17.7119 269.977 13.1321L268.064 11.5805C265.332 9.37606 263.482 7.9771 262.034 7.1137L261.982 7.08119C260.662 6.30258 259.686 5.98463 258.622 5.88713C257.812 5.81223 256.894 5.85745 255.939 5.9055C254.082 5.99735 252.094 6.09626 250.04 5.41656C249.023 5.08025 248.052 4.57436 247.037 4.04586C245.085 3.02843 242.954 1.91915 240.371 2.1184C237.595 2.33319 234.044 4.0289 229.646 6.13018C227.775 7.02326 225.752 7.98982 223.452 8.99594C219.361 10.7863 214.72 12.54 209.337 14.5749C204.815 16.2847 199.767 18.1924 194.098 20.4788C188.591 22.7002 182.631 25.2211 176.464 27.8297C168.419 31.2324 160.02 34.785 152.159 37.8853C144.328 40.9729 136.873 43.679 130.021 46.1646C124.586 48.1359 119.529 49.9715 114.984 51.7436C109.852 53.7445 105.318 55.6861 101.486 57.656C97.7038 59.6018 94.6208 61.5702 92.3403 63.6461C90.1221 65.6668 88.6696 67.7935 87.8021 70.2424C86.9204 72.7309 86.6265 75.5783 86.7367 79.0008C86.8399 82.2015 87.3005 85.9108 87.9434 89.6019C88.6979 93.9372 89.7067 98.2345 90.6872 101.644C91.583 104.76 92.452 107.117 93.4693 109.202C94.4851 111.283 95.655 113.104 97.1499 115.148C98.6561 117.205 100.487 119.483 102.667 121.566C104.826 123.631 107.336 125.513 110.217 126.809C113.107 128.11 116.392 128.834 119.949 129.152C123.543 129.474 127.436 129.383 131.489 129.057C135.55 128.731 139.752 128.168 144.054 127.258C148.351 126.349 152.764 125.089 157.255 123.365L157.337 123.338C161.613 121.692 165.971 119.616 170.144 117.327C174.669 114.844 178.96 112.115 182.679 109.416C186.257 106.82 189.3 104.256 191.959 101.756C194.628 99.2462 196.913 96.803 198.964 94.4587C203.582 90.4526 215.154 88.0098 215.154 88.0098C215.154 88.0098 229.199 86.5284 231.532 86.7629C234.865 87.0978 236.292 88.3272 236.158 90.3692C236.049 92.0253 234.626 94.1591 232.182 96.7437L232.123 96.803C229.591 99.4709 225.926 102.71 221.563 105.857C217.903 108.496 213.745 111.08 209.345 113.219C204.503 115.573 199.371 117.392 194.567 118.801C189.786 120.202 185.32 121.202 181.799 121.919C180.553 122.174 180.013 122.28 179.502 122.381C174.438 123.382 171.965 123.872 171.151 125.774C170.514 127.267 170.587 129.796 170.675 132.807C170.732 134.733 170.792 136.847 170.682 139.05C170.521 142.233 170.004 145.603 168.973 148.794C168.077 151.563 166.792 154.203 165.016 156.481C163.075 158.971 160.564 161.011 157.501 162.569C154.503 164.093 150.971 165.157 146.921 165.73C142.712 166.325 137.941 166.387 133.118 165.805C128.693 165.27 124.21 164.192 120.063 162.484C115.716 160.693 111.754 158.219 108.156 155.085C104.568 151.959 101.338 148.173 98.4441 143.757C95.6663 139.515 93.198 134.685 91.0405 129.481C88.7402 123.936 86.7876 117.954 85.1825 111.802C83.6015 105.739 82.3567 99.5091 81.5739 93.6377C80.8209 87.9923 80.4945 82.6748 80.7036 78.1529C80.9198 73.4728 81.7068 69.6334 82.9869 66.3776C84.2797 63.0893 86.0712 60.4002 88.2825 58.0446C90.3213 55.8726 92.7162 53.9876 95.3004 52.354C97.2714 51.1077 99.3484 50.0097 101.456 49.0431C99.1139 49.6112 96.5734 50.2796 93.9779 51.0497C89.2432 52.4558 84.3206 54.2009 80.0706 56.2923C74.5659 59.0026 70.183 62.3008 66.5688 66.5161C62.9433 70.7455 60.0708 75.9202 57.6011 82.3682C55.1101 88.8727 53.0289 96.6659 51.2557 104.804C49.4697 113.003 48.0031 121.501 46.7471 129.389C45.4938 137.249 44.4412 144.563 43.5878 151.497C42.74 158.384 42.1014 164.811 41.6761 170.931C41.2494 177.051 41.0318 182.879 41.4868 187.843C41.9304 192.69 43.0057 196.71 45.1476 199.357C47.2359 201.937 50.4235 203.257 54.8996 203.417C59.5749 203.582 65.0384 202.255 72.654 200.01C81.0716 196.774 91.6384 193.119 100.154 189.01C105.738 186.315 110.7 184.356 113.798 181.773C116.091 179.861 118.654 177.01 117.12 173.51C116.901 173.01 118.233 172.712 119.002 172.792C119.543 173.928 119.836 175.221 119.643 176.65C119.456 178.039 118.808 179.531 117.476 181.091C117.078 181.559 116.633 182.056 116.091 182.516C113.154 185.01 110.154 186.51 105.654 188.51C101.076 190.879 93.654 194.01 93.654 194.01L70.1462 202.838C74.3906 220.038 134.172 229.263 164.078 244.568V205.758C164.078 205.183 164.544 204.718 165.118 204.718L244.487 200.947L284.393 139.267C284.706 138.786 285.349 138.649 285.827 138.961C285.976 139.057 286.092 139.186 286.172 139.332L319.938 200.464L329.186 205.518L285.464 123.877L238.481 195.365C238.3 195.639 238.012 195.8 237.708 195.827L154.835 203.43C154.264 203.482 153.761 203.061 153.709 202.49C153.686 202.237 153.755 201.998 153.89 201.805H153.887L203.582 130.467C203.757 130.214 204.027 130.063 204.309 130.029L214.641 128.283C215.206 128.188 215.755 128.705 215.85 129.27C215.847 129.225 215.857 129.316 215.85 129.27L215.849 158.531C215.849 158.531 216.431 158.531 217 158.531L216.407 113.962C216.405 113.463 216.756 113.045 217.225 112.945V112.942L229.356 110.311C229.917 110.189 230.471 110.547 230.592 111.108C230.615 111.211 230.621 111.316 230.612 111.416L230.331 160.832C233.749 158.794 235.68 157.073 236.744 152.982C238.031 148.032 238.183 139.61 238.183 123.458C238.183 122.944 238.556 122.516 239.047 122.432L294.983 110.162C295.475 110.056 295.962 110.318 296.156 110.763L349.759 211.118C350.029 211.623 349.837 212.252 349.332 212.52C349.229 212.575 349.12 212.611 349.01 212.629C344.178 213.495 339.453 214.046 334.597 213.357C330.223 212.735 325.771 211.113 321.09 207.822V256.192C321.09 256.408 321.023 256.609 320.911 256.776C318.912 260.328 314.912 263.934 310.545 266.916C305.245 270.533 299.342 273.272 295.815 273.881C295.25 273.977 294.713 273.597 294.616 273.032C294.606 272.972 294.602 272.915 294.602 272.857V208.893L269.934 206.466V213.974L273.562 213.933C274.134 213.929 274.602 214.39 274.606 214.962V214.97H274.61V288.569C289.928 285.762 304.101 278.239 318.105 270.805C341.953 258.146 365.322 245.739 393.558 256.668C394.919 257.195 396.292 257.814 397.672 258.553C405.931 258.792 413.51 259.965 419.478 262.09C424.782 263.979 429.175 266.3 433.176 269.277C437.17 272.249 440.756 275.859 444.461 280.336C448.208 284.864 452.088 290.291 455.566 295.853C458.921 301.215 461.912 306.717 464.059 311.67C466.261 316.747 467.57 321.241 468 325.839C468.43 330.44 467.977 335.118 466.655 340.562C465.243 346.38 462.833 353.088 459.507 359.537C456.652 365.077 453.111 370.438 448.934 374.901C444.404 379.742 439.143 383.506 433.57 386.424C428.006 389.34 422.142 391.413 416.392 392.875C411.029 394.24 405.756 395.08 400.717 395.522C394.965 396.026 389.514 396.011 384.584 395.666C379.96 395.342 375.789 394.726 372.011 393.802C368.217 392.874 364.821 391.633 361.759 390.065C358.441 388.363 355.502 386.261 353.967 384.566C353.399 383.939 352.995 383.337 352.798 382.793C352.504 381.976 352.607 381.26 353.185 380.699C353.481 380.412 353.888 380.205 354.417 380.094C355.929 379.776 358.836 380.234 362.953 380.881C367.978 381.671 374.869 382.755 382.975 383.056C390.968 383.351 400.155 382.886 408.481 381.121C415.19 379.698 421.322 377.434 425.768 374.05C430.243 370.644 433.039 366.072 434.549 361.153C436.361 355.253 436.331 348.85 435.134 343.338C434.658 341.143 433.997 339.096 433.151 337.259C432.845 339.135 432.294 340.812 431.454 342.261C428.375 347.564 421.71 349.489 412.33 352.198C409.819 352.923 407.108 353.706 404.258 354.613C391.053 358.815 373.997 365.927 360.308 371.635L358.852 372.241C345.626 377.757 335.664 381.911 326.736 386.054C323.729 387.45 320.855 388.837 318.098 390.166C312.362 392.933 307.124 395.46 302.394 397.256C298.839 398.605 295.571 399.541 292.416 399.876C289.213 400.215 286.145 399.934 283.047 398.839C279.003 397.41 274.996 394.626 270.493 391.499C268.216 389.916 265.809 388.246 263.344 386.701C256.878 382.649 249.196 378.873 243.15 375.903L240.227 374.464C236.993 372.86 234.488 371.559 233.28 370.595C230.78 368.598 230.961 367.41 234.989 367.164C237.141 367.034 241.202 367.328 245.932 367.9C250.63 368.468 256.009 369.31 260.846 370.277C265.688 371.245 270.014 372.347 273.973 373.568C277.934 374.79 281.497 376.123 284.819 377.553C286.708 378.367 288.642 379.273 290.504 380.146C294.73 382.126 298.579 383.929 302.135 384.654C304.622 385.161 307.013 385.148 309.419 384.819C311.862 384.487 314.346 383.824 316.971 383.05C319.62 382.268 322.399 381.375 324.664 380.472C326.817 379.615 328.483 378.774 329.044 378.066C329.289 377.759 329.05 377.279 328.78 376.733C328.206 375.577 327.555 374.262 328.466 372.37C328.654 371.978 328.911 371.576 329.219 371.162C327.333 371.737 325.495 372.255 323.716 372.71V372.706C316.291 374.608 309.875 375.431 303.431 375.456C296.989 375.481 290.552 374.716 283.067 373.438C272.497 371.635 259.723 368.786 248.669 366.322C244.339 365.357 240.279 364.451 236.409 363.627C233.781 363.067 231.679 362.638 229.766 362.248C221.291 360.517 216.212 359.478 210.923 356.834C206.095 354.419 201.222 350.727 196.281 346.981C194.553 345.671 192.817 344.354 191.075 343.088C187.527 340.506 183.968 338.136 180.605 335.898C177.583 333.885 174.717 331.976 172.184 330.137C169.46 328.158 167.091 326.236 164.787 324.031C162.497 321.836 160.282 319.363 157.86 316.271C155.301 313.004 152.509 309.04 150.126 305.198C148.011 301.79 146.212 298.469 145.168 295.797C143.988 292.778 143.741 290.505 144.204 288.805C144.711 286.942 145.999 285.794 147.821 285.146L147.869 285.129C147.143 284.356 146.396 283.623 145.613 282.953C143.493 281.14 141.077 279.747 138.56 278.766C135.859 277.715 133.044 277.131 130.349 277.005C127.828 276.888 125.411 277.168 123.241 277.744C120.948 278.352 118.941 279.283 117.396 280.412C116.066 281.383 115.071 282.507 114.362 283.63C113.519 284.965 113.088 286.282 112.987 287.324C112.908 288.143 113.056 288.777 113.561 289.487C114.164 290.338 115.235 291.32 116.911 292.733L116.97 292.78C118.934 294.436 121.695 296.657 125.176 299.283C127.95 301.374 131.154 303.704 134.735 306.179C140.392 310.089 147.054 314.41 154.038 318.941C157.341 321.083 160.249 323.4 163 325.202C168.472 328.787 174.446 333.332 179.562 336.843C184.007 339.892 188.133 342.804 191.643 345.407C195.842 348.522 199.144 350.184 201.078 352.121C201.862 352.907 202.44 353.591 202.782 354.156C203.301 355.016 203.377 355.759 202.962 356.366L202.926 356.417C202.874 356.488 202.824 356.546 202.778 356.593C201.961 357.402 199.604 357.21 196.359 356.153C193.556 355.24 189.929 353.715 185.983 351.705C182.056 349.704 177.792 347.21 173.278 344.306C168.598 341.296 163.646 337.842 158.516 334.039C148.473 326.595 137.84 317.886 127.205 309.176V309.173L127.102 309.088C123.584 305.878 120.066 302.666 116.955 299.631C113.842 296.594 109.18 293.773 107.421 291.381C105.577 288.874 105.697 286.801 105.534 284.872C105.369 282.897 106.954 281.142 108.036 279.292C109.136 277.414 110.768 275.419 112.826 273.661C114.619 272.129 116.743 270.769 119.125 269.817C121.744 268.77 124.678 268.213 127.57 268.227C130.352 268.241 133.103 268.783 135.513 269.92C138.475 271.318 140.856 273.572 142.766 275.382C143.92 276.476 144.889 277.394 145.583 277.74C146.49 278.194 147.221 277.039 148.129 275.599C148.392 275.184 148.666 274.75 148.944 274.343C149.799 273.094 150.836 271.862 152.164 270.772C153.5 269.677 155.117 268.735 157.12 268.082C159.016 267.463 161.259 267.105 163.601 266.975C166.076 266.838 168.67 266.957 171.081 267.293C173.405 267.618 175.565 268.148 177.639 268.781C179.737 269.421 181.669 270.135 183.598 270.847C183.644 270.867 183.691 270.888 183.736 270.912H183.739C212.723 286.395 241.708 301.877 259.27 306.355C275.582 310.516 281.863 305.022 286.825 300.68L287.587 300.016C290.265 297.697 292.687 295.867 295.088 294.272C297.474 292.685 299.853 291.322 302.453 289.931C305.305 288.406 308.424 286.849 311.275 285.644C313.631 284.649 315.814 283.89 317.535 283.579C318.409 283.421 319.169 283.374 319.822 283.427C320.872 283.51 321.69 283.841 322.299 284.37C322.928 284.917 323.305 285.652 323.463 286.53C323.551 287.016 323.571 287.537 323.527 288.083C323.402 289.637 322.774 291.521 321.468 293.365C320.425 294.84 318.948 296.294 316.947 297.534L316.889 297.572C313.936 299.386 309.882 300.717 305.248 302.239C303.066 302.956 300.752 303.714 298.418 304.568C294.653 305.944 290.708 307.605 286.932 309.43C283.406 311.136 280.032 312.984 277.094 314.878C274.213 316.735 271.752 318.638 269.713 320.501C267.502 322.519 265.798 324.476 264.598 326.262C263.475 327.936 262.796 329.458 262.406 330.967C262.013 332.484 261.907 334.011 261.931 335.679C261.956 337.475 262.137 339.433 262.51 341.311C262.829 342.926 263.29 344.462 263.912 345.751C264.563 347.101 265.402 348.196 266.386 349.121C267.39 350.067 268.55 350.844 269.821 351.538C271.096 352.236 272.474 352.849 273.904 353.198C275.29 353.537 276.734 353.631 278.195 353.311C278.609 353.221 279.026 353.097 279.444 352.944C278.058 352.045 276.8 350.478 275.7 348.593C274.29 346.177 273.106 343.201 272.242 340.471C271.458 337.988 270.934 335.687 270.781 333.603C270.623 331.444 270.866 329.512 271.631 327.842C272.309 326.361 273.381 325.124 274.62 324.108V324.104C276.135 322.863 277.912 321.946 279.503 321.316V321.312C280.946 320.741 282.257 320.399 283.529 320.328C284.843 320.256 286.086 320.471 287.353 321.019C288.642 321.576 289.957 322.482 291.132 323.694C292.186 324.785 293.128 326.129 293.832 327.692C294.578 329.351 295.057 331.259 295.218 333.226C295.372 335.113 295.232 337.072 294.751 338.939C294.264 340.836 293.432 342.613 292.355 344.284C291.293 345.935 289.99 347.488 288.546 348.958C288.056 349.458 287.547 349.948 287.026 350.423C287.393 350.241 287.759 350.054 288.118 349.869C288.509 349.668 288.895 349.469 289.281 349.28C290.835 348.517 292.268 347.95 293.741 347.498C295.208 347.048 296.72 346.709 298.441 346.397C299.146 346.268 299.658 346.182 300.184 346.092C303.148 345.589 306.624 344.997 310.334 343.554C312.393 342.753 314.575 341.669 316.818 340.555C319.479 339.233 322.226 337.869 325.026 336.843C327.644 335.884 330.305 335.222 332.954 334.735C335.579 334.251 338.183 333.943 340.719 333.688C343.261 333.43 345.724 333.226 348.266 333.062C350.78 332.899 353.428 332.772 356.363 332.669H356.374C359.618 332.554 363.127 332.471 366.258 332.471C368.894 332.471 371.348 332.527 373.291 332.667C375.497 332.827 377.052 333.103 378.081 333.487C379.487 334.013 380.098 334.79 380.098 335.785C380.098 336.716 379.46 337.739 377.978 338.601C376.955 339.197 375.47 339.763 373.438 340.202C369.404 341.078 363.093 341.492 357.842 341.836L356.883 341.899C352.756 342.172 349.383 342.421 346.104 342.664L343.118 342.884C339.065 343.179 334.812 343.492 330.115 344.47C327.487 345.018 324.714 345.774 322.672 346.656C321.236 347.276 320.235 347.889 320.084 348.414C319.962 348.835 320.697 349.5 321.898 350.31C323.436 351.349 325.622 352.442 327.907 353.584L327.935 353.598C332.916 356.089 338.326 358.797 337.893 362.81C337.753 364.109 336.981 365.423 335.96 366.713C339.6 365.407 343.361 363.928 347.179 362.301C355.826 358.619 364.764 354.192 373.267 349.355C378.12 346.593 382.931 343.634 387.526 340.808C398.763 333.898 408.725 327.771 416.573 326.327C421.996 325.329 426.38 326.553 429.76 329.3C430.285 329.727 430.785 330.192 431.261 330.689C431.22 330.161 431.17 329.622 431.106 329.074C430.517 323.909 428.982 317.913 427.021 311.501C424.91 304.599 422.304 297.21 419.393 290.369C416.888 284.481 414.164 279.013 411.346 274.636C408.337 269.96 405.226 266.534 402.102 263.987C400.436 262.627 398.766 261.516 397.104 260.595C395.443 259.674 392.591 258.507 392.591 258.507C365.339 248.068 342.44 260.222 319.075 272.626C304.588 280.318 289.922 288.103 273.819 290.799C273.739 290.82 273.652 290.83 273.565 290.83C272.99 290.83 272.525 290.363 272.525 289.79V216.003L269.929 216.033V281.029C269.929 281.604 269.463 282.069 268.889 282.069H268.839C246.167 282.898 223.268 277.824 204.917 269.184C186.334 260.435 172.372 247.999 167.927 234.275C167.893 234.169 167.877 234.063 167.877 233.958L167.875 213.785C167.875 213.21 168.341 212.745 168.915 212.745L238.592 209.971C239.165 209.948 239.646 210.395 239.669 210.967V211.008H239.673V214.309L267.848 213.986V205.308H267.851L267.857 205.206C267.913 204.635 268.42 204.218 268.991 204.275L295.66 206.899C296.224 206.912 296.677 207.372 296.677 207.939V271.545C300.005 270.644 304.883 268.25 309.371 265.188C313.439 262.411 317.146 259.106 319.005 255.911V205.747H319.01C319.01 205.524 319.082 205.299 319.23 205.108C319.582 204.658 320.235 204.577 320.685 204.93C325.66 208.814 330.326 210.641 334.888 211.288C339.018 211.874 343.096 211.503 347.252 210.817L294.658 112.353L240.261 124.285C240.255 140.054 240.079 148.381 238.749 153.494C237.325 158.971 234.704 160.749 229.794 163.528C229.642 163.613 229.465 163.662 229.277 163.662C228.705 163.659 228.243 163.195 228.246 162.622L228.531 112.607L218.485 114.786L218.846 159.824C218.85 160.379 218.402 160.832 217.846 160.832C216.97 160.832 215.811 160.832 214.995 160.832C214.444 160.832 213.998 160.386 213.996 159.836L213.885 130.508L205.041 132.003L156.869 201.152L237.024 193.799L284.672 121.3C284.765 121.148 284.899 121.018 285.069 120.927C285.573 120.659 286.202 120.85 286.47 121.354L332.646 207.58C332.814 207.881 332.829 208.258 332.653 208.585C332.379 209.088 331.75 209.273 331.247 208.999L318.733 202.158C318.541 202.067 318.374 201.918 318.264 201.717L285.193 141.84L245.952 202.494C245.778 202.774 245.473 202.968 245.119 202.985L166.159 206.738V246.241C166.159 246.394 166.125 246.549 166.053 246.696C165.802 247.212 165.179 247.426 164.663 247.175C133.07 231.758 72.5905 221.297 68.154 203.417C60.3307 205.723 59.7374 205.652 54.8247 205.479C49.7128 205.298 46.0236 203.728 43.5369 200.656C41.1039 197.65 39.8987 193.254 39.4197 188.02C38.952 182.903 39.171 176.981 39.602 170.783C40.0329 164.584 40.6729 158.122 41.5207 151.236C42.3628 144.396 43.4225 137.051 44.6969 129.054C45.9671 121.086 47.4422 112.527 49.2225 104.356C51.0155 96.1247 53.1249 88.2312 55.6569 81.6207C58.2114 74.9537 61.1983 69.5811 64.9906 65.1581C68.7941 60.721 73.3904 57.2575 79.1508 54.4228C83.5209 52.2721 88.5566 50.4845 93.3901 49.0502C101.168 46.7412 108.431 45.3394 111.533 44.801C112.202 44.6851 112.751 44.6258 113.191 44.6272C113.264 44.5961 113.342 44.5735 113.422 44.5594C113.948 44.4703 114.45 44.7925 114.595 45.2928L114.622 45.4086C114.784 46.3597 113.626 46.7468 111.807 47.346C110.168 47.8858 107.774 48.6757 105.387 49.6197C102.304 50.8392 99.2255 52.3173 96.4053 54.1006C93.9652 55.6423 91.7088 57.4186 89.7943 59.4577C87.7583 61.6268 86.1094 64.1025 84.9211 67.1251C83.7187 70.1788 82.9798 73.8006 82.7749 78.2335C82.5715 82.6353 82.8922 87.8312 83.6297 93.3607C84.4012 99.1431 85.629 105.287 87.1903 111.272C88.7685 117.32 90.6901 123.207 92.9592 128.674C95.0673 133.758 97.4763 138.474 100.185 142.61C102.971 146.866 106.078 150.506 109.523 153.508C112.959 156.501 116.729 158.859 120.852 160.556C124.806 162.186 129.104 163.217 133.361 163.73C138.013 164.291 142.6 164.233 146.636 163.664C150.445 163.125 153.757 162.129 156.557 160.706C159.353 159.285 161.635 157.436 163.382 155.195C164.995 153.125 166.171 150.703 166.996 148.149C167.968 145.142 168.457 141.957 168.609 138.943C168.717 136.796 168.657 134.735 168.602 132.855C168.508 129.597 168.427 126.857 169.241 124.953C170.49 122.035 173.316 121.477 179.103 120.332L181.385 119.879C184.852 119.171 189.253 118.187 193.982 116.8C198.69 115.419 203.715 113.64 208.442 111.34C212.733 109.252 216.784 106.736 220.35 104.164C224.613 101.09 228.175 97.9462 230.621 95.3687L230.67 95.3122C232.788 93.0724 234.012 91.3527 234.085 90.2293C234.133 89.4916 233.281 89.014 231.329 88.8176C229.165 88.6 225.866 88.795 222.039 89.0225C222.039 89.0225 204.309 91.3785 200.527 95.8124C198.43 98.2104 196.098 100.705 193.383 103.257C190.658 105.819 187.547 108.441 183.9 111.088C180.116 113.834 175.75 116.61 171.146 119.136C166.921 121.453 162.477 123.567 158.083 125.259L157.997 125.297C153.414 127.055 148.894 128.345 144.48 129.279C140.071 130.211 135.783 130.787 131.655 131.119C127.519 131.451 123.521 131.541 119.773 131.205C115.987 130.866 112.476 130.09 109.366 128.691C106.249 127.289 103.552 125.268 101.239 123.058C98.9471 120.868 97.0397 118.497 95.477 116.363C93.9044 114.214 92.6738 112.298 91.6014 110.1C90.5304 107.906 89.6205 105.443 88.688 102.201C87.6919 98.7375 86.6661 94.364 85.8946 89.9396C85.2405 86.1836 84.7714 82.3795 84.664 79.0545C84.5453 75.3734 84.8717 72.2829 85.8424 69.5401C86.8272 66.7577 88.4605 64.3583 90.9416 62.0987C93.3605 59.8957 96.5932 57.8269 100.535 55.7991C104.428 53.7968 109.028 51.8269 114.236 49.7963C118.847 47.9988 123.892 46.1675 129.315 44.2004C136.127 41.7289 143.539 39.0398 151.404 35.9381C159.397 32.7854 167.704 29.2725 175.661 25.9079C181.925 23.2583 187.975 20.6992 193.328 18.54C199.02 16.2437 204.076 14.3318 208.608 12.6191C213.971 10.5913 218.594 8.84333 222.625 7.07978C224.761 6.14572 226.837 5.15373 228.754 4.23804C233.343 2.04633 237.047 0.277129 240.219 0.03125C243.389 -0.214629 245.794 1.03738 247.998 2.18622C248.936 2.67516 249.835 3.1443 250.691 3.42692C252.392 3.98792 254.175 3.90031 255.843 3.81835C256.864 3.76748 257.846 3.71943 258.81 3.80846C260.185 3.93564 261.417 4.32848 263.039 5.28656L263.099 5.32047C264.648 6.24323 266.564 7.69024 269.366 9.94978L271.287 11.5098C276.854 16.0388 285.04 22.6988 294.322 27.9258C299.38 30.776 304.782 33.2094 309.987 35.5537C315.551 38.0605 320.896 40.4684 325.412 43.1915C332.187 47.2753 337.014 52.0092 343.587 58.4515C345.541 60.3677 347.654 62.4365 350.039 64.7059C354.666 69.1077 360.302 74.233 365.959 79.2594C372.823 85.3583 379.61 91.2227 384.642 95.4592C386.247 96.8101 387.799 98.1002 389.179 99.2462C395.352 104.376 398.129 106.681 399.796 109.868C400.83 111.845 401.401 114.119 401.484 116.329C401.568 118.553 401.159 120.73 400.237 122.503C399.365 124.182 398.044 125.489 396.526 126.446C394.814 127.527 392.847 128.157 391.005 128.372C389.281 128.572 387.655 128.411 386.123 127.914C384.607 127.421 383.194 126.597 381.883 125.463C381.569 125.593 381.26 125.718 380.955 125.838C379.499 126.41 378.142 126.882 376.625 127.127L376.589 127.134C375.046 127.378 373.388 127.374 371.385 126.984C369.381 126.594 367.016 125.811 364.46 124.666C362.064 123.594 359.493 122.201 356.893 120.512C354.478 118.943 352.061 117.139 349.071 114.867C347.779 115.787 346.211 116.431 344.503 116.872C342.727 117.33 340.8 117.567 338.887 117.663C336.975 117.759 335.073 117.718 333.033 117.478C330.991 117.238 328.81 116.8 326.34 116.104C323.898 115.416 321.172 114.474 318.104 113.316C315.013 112.149 311.644 110.794 307.901 109.269L303.127 107.316C296.762 104.715 289.796 101.869 283.625 99.4879C279.783 98.0041 276.314 96.7281 273.004 95.5849C269.722 94.4502 266.527 93.4243 263.208 92.4337C262.189 92.1299 261.511 91.9306 260.81 91.7257C254.904 89.9933 248.674 88.1661 241.584 84.4327C237.561 82.3145 233.28 79.5915 228.87 76.566C224.475 73.5505 219.952 70.2354 215.43 66.9202L215.426 66.9301ZM348.986 112.204C349.561 111.594 350.033 110.899 350.405 110.169C351.046 108.909 351.391 107.551 351.473 106.324C351.545 105.234 351.406 104.258 350.959 103.34C350.494 102.388 349.691 101.463 348.446 100.5C347.237 99.5628 345.612 98.592 343.761 97.6297C341.546 96.478 339.049 95.3616 336.564 94.3372C334.518 93.4949 332.341 92.664 329.9 91.7342C327.048 90.6461 323.828 89.4182 319.804 87.7761C316.106 86.267 311.722 84.4016 307.229 82.3187L306.459 81.9598L311.212 85.2396C320.281 91.4954 329.191 97.6395 336.008 102.547C341.479 106.486 345.519 109.563 348.833 112.09L348.988 112.207L348.986 112.204ZM382.304 123.023C383.009 122.697 383.71 122.339 384.374 121.941C385.654 121.17 386.811 120.243 387.625 119.093C388.425 117.963 388.907 116.595 389.062 115.165C389.22 113.705 389.041 112.185 388.511 110.784C387.983 109.384 387.091 108.087 385.589 106.655C384.018 105.157 381.79 103.519 378.646 101.499C375.651 99.5727 371.984 97.388 367.677 94.8247C365.749 93.6758 363.693 92.4521 361.53 91.152C364.084 92.9028 366.183 94.4219 367.782 95.7404C373.236 100.24 373.129 102.584 373.021 104.95C373.001 105.378 372.983 105.807 373.011 106.247C373.095 107.462 373.571 108.874 374.256 110.379C374.972 111.95 375.913 113.619 376.884 115.275C377.85 116.926 378.845 118.568 379.905 120.07C380.675 121.162 381.472 122.167 382.305 123.024L382.304 123.023ZM112.423 45.9569C112.556 46.0544 112.618 46.0459 112.572 45.7718C112.517 45.4623 112.493 45.6545 112.423 45.9569ZM267.85 280.041V216.073L239.675 216.396V253.708C239.675 254.283 239.208 254.748 238.635 254.748C238.523 254.748 238.416 254.731 238.315 254.698L184.185 242.587C183.701 242.479 183.372 242.051 183.373 241.575H183.369V216.139C183.369 215.564 183.835 215.099 184.409 215.099L184.476 215.102L204.122 214.665C204.694 214.654 205.167 215.109 205.178 215.681V215.701H205.183V242.893L208.948 243.553V215.701C208.948 215.126 209.414 214.661 209.988 214.661L210.07 214.664L237.596 214.347V212.102L169.959 214.797V233.813C174.275 246.901 187.793 258.84 205.806 267.321C223.632 275.714 245.818 280.691 267.852 280.041H267.85ZM237.593 252.413V216.42L211.026 216.726V244.791C211.026 244.85 211.021 244.91 211.009 244.971C210.911 245.536 210.372 245.914 209.806 245.816L204.003 244.8C203.493 244.733 203.099 244.296 203.099 243.768V216.762L185.447 217.155V240.747L237.592 252.415L237.593 252.413ZM401.309 260.797C402.011 261.29 402.712 261.82 403.413 262.393C406.701 265.075 409.962 268.658 413.097 273.529C415.979 278.007 418.759 283.582 421.306 289.572C424.238 296.464 426.872 303.929 429.008 310.916C431.007 317.453 432.571 323.57 433.175 328.855C433.36 330.476 433.454 332.023 433.446 333.486C435.16 336.132 436.396 339.344 437.166 342.897C438.429 348.719 438.457 355.495 436.533 361.76C434.904 367.066 431.879 372.007 427.028 375.698C422.313 379.287 415.896 381.669 408.912 383.15C400.415 384.952 391.047 385.427 382.902 385.126C374.68 384.822 367.716 383.725 362.635 382.927C358.739 382.315 355.99 381.881 354.838 382.123L354.766 382.139C354.879 382.414 355.132 382.767 355.501 383.173C356.883 384.698 359.596 386.625 362.698 388.216C365.612 389.708 368.857 390.893 372.496 391.783C376.151 392.677 380.204 393.275 384.719 393.59C389.541 393.928 394.883 393.942 400.535 393.446C405.466 393.014 410.629 392.191 415.876 390.856C421.501 389.424 427.216 387.408 432.607 384.585C437.988 381.765 443.062 378.138 447.418 373.483C451.446 369.179 454.877 363.976 457.658 358.584C460.907 352.283 463.258 345.739 464.634 340.072C465.902 334.852 466.338 330.388 465.93 326.024C465.523 321.659 464.267 317.366 462.152 312.49C460.058 307.661 457.115 302.252 453.797 296.95C450.37 291.471 446.546 286.123 442.854 281.66C439.247 277.301 435.774 273.799 431.935 270.943C428.105 268.093 423.887 265.867 418.783 264.049C413.9 262.309 407.895 261.23 401.308 260.796L401.309 260.797ZM429.656 341.218C430.754 339.326 431.278 336.915 431.359 334.099C430.508 332.877 429.541 331.808 428.454 330.926C425.536 328.557 421.716 327.508 416.949 328.384C409.498 329.755 399.686 335.789 388.617 342.596C384.066 345.394 379.303 348.324 374.293 351.175C365.719 356.053 356.708 360.517 347.994 364.228C342.868 366.411 337.842 368.335 333.07 369.931C331.87 371.188 330.771 372.367 330.333 373.274C329.862 374.251 330.275 375.084 330.638 375.816C331.22 376.991 331.732 378.021 330.668 379.36C329.859 380.379 327.891 381.419 325.426 382.401C323.07 383.34 320.238 384.251 317.554 385.044C314.849 385.842 312.277 386.526 309.694 386.878C307.075 387.236 304.462 387.247 301.72 386.687C297.926 385.914 293.97 384.06 289.625 382.025C287.862 381.2 286.031 380.341 283.998 379.465C280.718 378.052 277.223 376.743 273.364 375.553C269.503 374.362 265.247 373.28 260.44 372.319C255.643 371.359 250.324 370.527 245.689 369.966C241.059 369.406 237.13 369.114 235.111 369.237C234.975 369.245 234.347 368.788 234.573 368.968C235.638 369.819 238.033 371.058 241.146 372.603C242.465 373.257 243.245 373.642 244.06 374.041C250.144 377.032 257.876 380.83 264.442 384.946C267.101 386.612 269.453 388.247 271.68 389.793C276.063 392.839 279.965 395.547 283.738 396.881C286.53 397.868 289.302 398.121 292.205 397.813C295.157 397.5 298.261 396.607 301.663 395.316C306.305 393.553 311.503 391.045 317.197 388.3C319.978 386.959 322.877 385.56 325.867 384.172C334.847 380.005 344.818 375.846 358.056 370.325L359.511 369.719C373.213 364.006 390.283 356.886 403.631 352.639C406.548 351.71 409.25 350.93 411.751 350.208C420.662 347.635 426.994 345.805 429.655 341.222L429.656 341.218ZM331.931 368.118C333.748 366.216 335.664 364.177 335.833 362.604C336.112 360.022 331.391 357.655 327.036 355.478L326.983 355.451C324.615 354.267 322.35 353.133 320.739 352.047C318.779 350.724 317.66 349.357 318.097 347.85C318.445 346.647 319.88 345.613 321.857 344.758C324.023 343.822 326.943 343.024 329.697 342.449C334.545 341.44 338.861 341.123 342.977 340.824L345.961 340.603C349.171 340.366 352.475 340.121 356.757 339.839L357.716 339.775C362.888 339.436 369.103 339.028 373.004 338.181C374.813 337.79 376.094 337.311 376.942 336.816C377.697 336.377 378.023 336.026 378.023 335.796C378.023 335.727 377.822 335.612 377.363 335.441C376.527 335.129 375.16 334.896 373.151 334.75C371.289 334.616 368.881 334.562 366.263 334.562C363.012 334.562 359.559 334.642 356.452 334.75H356.441C353.596 334.851 350.968 334.976 348.4 335.143C345.851 335.308 343.412 335.511 340.927 335.762C338.437 336.014 335.886 336.315 333.331 336.785C330.801 337.25 328.256 337.883 325.745 338.803C323.028 339.798 320.342 341.133 317.74 342.426C315.463 343.557 313.249 344.658 311.085 345.498C307.171 347.02 303.586 347.631 300.527 348.149C299.858 348.262 299.215 348.373 298.808 348.446C297.177 348.743 295.743 349.064 294.353 349.49C292.971 349.914 291.635 350.441 290.193 351.149C289.827 351.329 289.447 351.524 289.063 351.722C286.918 352.824 284.621 354.002 282.332 353.889C281.113 354.568 279.871 355.078 278.633 355.348C276.844 355.739 275.089 355.629 273.415 355.219C271.786 354.82 270.243 354.138 268.827 353.364C267.407 352.586 266.103 351.712 264.963 350.638C263.802 349.545 262.811 348.252 262.043 346.657C261.336 345.193 260.82 343.485 260.47 341.713C260.077 339.733 259.886 337.641 259.86 335.706C259.833 333.868 259.954 332.17 260.399 330.45C260.847 328.722 261.614 326.992 262.878 325.112C264.172 323.184 265.986 321.096 268.317 318.967C270.432 317.036 272.987 315.062 275.975 313.134C278.981 311.195 282.431 309.306 286.032 307.565C289.866 305.711 293.877 304.024 297.713 302.621C300.132 301.736 302.435 300.98 304.608 300.266C309.109 298.788 313.047 297.495 315.802 295.802L315.858 295.77C317.607 294.686 318.888 293.433 319.778 292.172C320.845 290.664 321.357 289.152 321.455 287.922C321.487 287.536 321.477 287.191 321.424 286.897C321.351 286.492 321.191 286.165 320.934 285.942C320.659 285.702 320.239 285.548 319.66 285.501C319.165 285.461 318.58 285.498 317.901 285.621C316.342 285.902 314.306 286.615 312.079 287.556C309.297 288.731 306.234 290.262 303.428 291.762C300.9 293.115 298.58 294.444 296.232 296.005C293.898 297.558 291.544 299.334 288.943 301.586L288.19 302.243C282.863 306.904 276.119 312.802 258.756 308.373C240.99 303.843 211.914 288.316 182.829 272.78C180.897 272.067 178.965 271.353 177.036 270.765C175.066 270.165 173.012 269.66 170.794 269.351C168.509 269.031 166.053 268.92 163.712 269.05C161.546 269.17 159.483 269.498 157.76 270.059C156.019 270.627 154.623 271.436 153.48 272.375C152.328 273.319 151.417 274.407 150.658 275.515C150.373 275.931 150.123 276.327 149.884 276.706C148.417 279.026 147.24 280.887 144.655 279.594L144.437 279.478C145.31 280.055 146.154 280.687 146.958 281.375C148.122 282.371 149.192 283.472 150.216 284.619C151.297 284.499 152.487 284.496 153.763 284.599C156.105 284.789 158.759 285.339 161.566 286.182L161.615 286.196C164.349 287.021 167.245 288.135 170.248 289.62C173.241 291.1 176.327 292.947 179.448 295.243C182.156 297.235 184.892 299.568 187.637 301.947C189.441 303.51 189.53 303.592 190.727 304.623C193.336 306.841 198.138 310.633 198.138 310.633C201.654 313.206 207.753 316.316 207.753 316.316C210.872 318.2 220.113 320.834 220.113 320.834L237.584 325.202C237.584 325.202 245 326.531 250.526 326.686C251.252 326.706 250.546 328.756 250.546 328.756C247.102 328.804 242.389 328.186 237.343 327.218C231.365 326.072 224.896 324.432 219.515 322.824C214.546 321.337 210.49 319.873 206.878 318.2C203.251 316.52 200.083 314.632 196.904 312.305C193.721 309.976 190.529 307.205 187.35 304.446L186.712 303.892C186.154 303.51 184.269 301.783 183.654 301.263L178.154 297.01L173.917 294.195L169.331 291.484L165.128 289.62L161.016 288.192C157.654 286.849 154.942 286.804 153.603 286.675C152.879 286.606 149.989 286.721 149.404 286.849C149.086 286.918 148.785 287.003 148.504 287.103C147.33 287.522 146.509 288.228 146.203 289.347C145.854 290.629 146.09 292.472 147.094 295.039C148.094 297.6 149.832 300.805 151.882 304.107C154.225 307.883 156.97 311.78 159.486 314.994C161.837 317.995 163.991 320.399 166.219 322.534C168.436 324.658 170.737 326.522 173.396 328.452C175.928 330.291 178.758 332.176 181.744 334.164C185.14 336.426 188.738 338.821 192.287 341.403C194.042 342.679 195.788 344.003 197.526 345.32C202.403 349.018 207.213 352.664 211.843 354.979C216.88 357.498 221.862 358.516 230.173 360.213C232.277 360.642 234.578 361.113 236.833 361.592C240.241 362.317 244.534 363.275 249.109 364.295C260.094 366.744 272.788 369.575 283.409 371.386C290.802 372.648 297.136 373.406 303.415 373.38C309.69 373.356 315.947 372.552 323.196 370.695V370.691C325.974 369.98 328.897 369.115 331.924 368.114L331.931 368.118ZM280.799 351.346C281.154 351.545 281.525 351.671 281.908 351.739L282.366 351.452C284.016 350.381 285.62 348.99 287.071 347.512C288.419 346.14 289.631 344.696 290.613 343.172C291.579 341.67 292.323 340.093 292.749 338.436C293.168 336.811 293.288 335.081 293.151 333.398C293.009 331.665 292.591 329.997 291.943 328.555C291.341 327.216 290.537 326.07 289.641 325.143C288.669 324.138 287.589 323.392 286.538 322.938C285.572 322.521 284.632 322.356 283.647 322.411C282.623 322.468 281.521 322.762 280.272 323.256V323.253C278.858 323.813 277.281 324.627 275.941 325.723V325.721C274.924 326.553 274.054 327.548 273.521 328.712C272.913 330.039 272.726 331.637 272.858 333.464C272.997 335.366 273.49 337.51 274.229 339.852C275.051 342.454 276.173 345.279 277.498 347.552C278.52 349.302 279.642 350.7 280.799 351.347V351.346ZM143.898 279.131C143.126 278.582 142.288 277.79 141.337 276.888C139.536 275.183 137.294 273.057 134.63 271.801C132.497 270.795 130.05 270.316 127.564 270.303C124.94 270.29 122.279 270.795 119.899 271.746C117.739 272.611 115.809 273.846 114.177 275.24C112.298 276.846 110.816 278.653 109.827 280.343C108.956 281.83 107.483 283.21 107.609 284.704C107.737 286.247 107.497 287.98 109.097 290.156C110.782 292.448 115.367 295.185 118.402 298.145C121.436 301.106 124.97 304.331 128.501 307.554L128.521 307.571V307.568C139.176 316.294 149.826 325.018 159.752 332.373C164.831 336.138 169.747 339.566 174.4 342.559C178.84 345.415 183.044 347.874 186.925 349.852C190.782 351.818 194.302 353.299 197 354.179C198.953 354.815 200.355 355.174 200.975 355.191C200.712 354.77 200.247 354.23 199.606 353.587C197.749 351.727 194.526 350.133 190.405 347.076C186.945 344.51 182.837 341.612 178.39 338.56C173.351 335.103 167.841 331.43 162.322 327.814C158.744 325.47 155.794 322.557 152.906 320.683C145.911 316.144 139.236 311.816 133.554 307.889C129.9 305.363 126.678 303.023 123.922 300.945C120.423 298.307 117.627 296.055 115.627 294.368L115.573 294.319C113.759 292.788 112.585 291.704 111.867 290.693C111.035 289.52 110.789 288.477 110.919 287.13C111.047 285.799 111.576 284.151 112.603 282.525C113.438 281.202 114.609 279.88 116.173 278.738C117.927 277.456 120.17 276.409 122.709 275.736C125.07 275.11 127.699 274.805 130.437 274.932C133.354 275.068 136.396 275.697 139.306 276.832C140.887 277.448 142.431 278.214 143.896 279.131H143.898ZM201.243 355.162L201.277 355.147C201.277 355.147 201.262 355.151 201.243 355.162ZM354.643 382.177L354.632 382.184C354.6 382.215 354.615 382.202 354.643 382.177Z" fill="#0C3058"/>
<path d="M225.551 362.031C57.2959 377.947 -138.433 412.937 139.103 410.38C562.216 406.482 507.15 394.565 459.186 394.078" stroke="#0C3058" stroke-width="1.99715" stroke-miterlimit="10" stroke-linecap="round"/>
</g>
<defs>
<clipPath id="clip0_673_4305">
<rect width="492" height="405" fill="white"/>
</clipPath>
</defs>
</svg>
