<svg width="784" height="450" viewBox="0 0 784 450" fill="none" xmlns="http://www.w3.org/2000/svg">
<g clip-path="url(#clip0_1294_5539)">
<path d="M295.354 90.4584C296.444 93.457 298.068 99.1847 298.068 104.678C298.248 107.024 298.454 112.139 298.671 115.285C299.349 124.099 298.156 145.442 287.959 160.303C286.237 162.203 281.64 165.185 271.551 163.015C266.082 162.066 253.436 158.486 246.602 151.76" stroke="#0C3058" stroke-width="2" stroke-linecap="round"/>
<path d="M220.332 125.004L219.38 125.311L219.399 125.368L219.424 125.423L220.332 125.004ZM231.83 113.209L232.496 113.955L232.502 113.949L232.509 113.943L231.83 113.209ZM247.52 125.004L246.673 125.536C246.883 125.869 247.269 126.049 247.659 125.994C248.049 125.94 248.371 125.661 248.481 125.283L247.52 125.004ZM251.951 111.802L252.79 112.347L252.854 112.247L252.894 112.135L251.951 111.802ZM254.973 91.6285L255.958 91.4559L254.973 91.6285ZM256.812 89.7344L256.618 90.7155L256.659 90.7236L256.701 90.7283L256.812 89.7344ZM277.332 89.6292V88.6292H277.28L277.229 88.6345L277.332 89.6292ZM286.728 89.0848L286.772 88.0858L286.728 89.0848ZM286.754 64.5874L287.168 63.677L287.13 63.6595L287.09 63.6454L286.754 64.5874ZM203.543 175.823L203.257 174.865L203.22 174.876L203.183 174.89L203.543 175.823ZM181.187 185.378L180.802 184.454L181.187 185.378ZM152.914 217.501L153.856 217.837L153.862 217.82L153.868 217.803L152.914 217.501ZM128.174 286.976L129.094 287.368L129.106 287.34L129.117 287.312L128.174 286.976ZM133.511 328.903L134.431 328.511L134.416 328.477L134.399 328.445L133.511 328.903ZM167.3 392.227L166.72 393.042L167.026 393.26L167.4 393.222L167.3 392.227ZM185.101 383.693L185.739 384.462L185.765 384.441L185.789 384.418L185.101 383.693ZM201.681 370.975C202.09 370.604 202.121 369.972 201.75 369.563C201.379 369.154 200.747 369.123 200.338 369.494L201.009 370.235L201.681 370.975ZM299.359 88.4705L298.603 87.8162L299.359 88.4705ZM255.038 103.032L254.071 102.776L255.038 103.032ZM225.14 166.304L224.626 165.446L225.14 166.304ZM299.894 87.8177L299.105 87.2026L299.894 87.8177ZM301.066 85.4752L300.106 85.1931L301.066 85.4752ZM230.429 125.355L229.499 125.723L230.429 125.355ZM193.288 376.469L193.916 377.247L193.288 376.469ZM226.74 137.385L225.877 137.891L226.74 137.385ZM234.158 149.874L233.271 150.336L234.158 149.874ZM233.814 70.0315L233.519 69.0758L233.814 70.0315ZM235.548 68.8528L234.772 68.2216L235.548 68.8528ZM233.814 70.0315L233.519 69.0758C227.62 70.8935 221.011 75.5646 217.435 84.5457C213.865 93.5084 213.363 106.638 219.38 125.311L220.332 125.004L221.284 124.697C215.353 106.291 215.953 93.6707 219.293 85.2857C222.625 76.9191 228.731 72.6438 234.108 70.9872L233.814 70.0315ZM220.332 125.004L219.424 125.423C220.801 128.407 223.36 133.596 225.877 137.891L226.74 137.385L227.603 136.879C225.13 132.66 222.601 127.534 221.24 124.585L220.332 125.004ZM234.158 149.874L233.271 150.336C233.489 150.755 233.698 151.138 233.89 151.45C234.062 151.732 234.278 152.055 234.518 152.269L235.184 151.524L235.85 150.778C235.853 150.781 235.77 150.69 235.595 150.405C235.439 150.151 235.254 149.815 235.045 149.412L234.158 149.874ZM235.184 151.524L235.987 152.12C237.346 150.292 239.725 147.529 239.64 143.032L238.64 143.05L237.64 143.069C237.71 146.778 235.811 149.004 234.381 150.927L235.184 151.524ZM230.429 125.355L231.359 124.988C229.692 120.767 229.483 116.644 232.496 113.955L231.83 113.209L231.164 112.463C227.158 116.038 227.757 121.31 229.499 125.723L230.429 125.355ZM231.83 113.209L232.509 113.943C232.79 113.683 233.254 113.39 233.87 113.211L233.59 112.251L233.31 111.291C232.405 111.555 231.667 111.998 231.151 112.474L231.83 113.209ZM246.754 123.784L245.907 124.315L246.673 125.536L247.52 125.004L248.367 124.472L247.601 123.252L246.754 123.784ZM247.52 125.004L248.481 125.283C249.036 123.367 249.923 120.412 250.779 117.771C251.207 116.45 251.625 115.216 251.987 114.234C252.365 113.209 252.645 112.569 252.79 112.347L251.951 111.802L251.113 111.257C250.823 111.702 250.47 112.567 250.111 113.542C249.735 114.56 249.308 115.823 248.876 117.155C248.013 119.82 247.119 122.797 246.56 124.726L247.52 125.004ZM251.951 111.802L252.894 112.135C253.634 110.043 255.011 107.045 256.004 103.288L255.038 103.032L254.071 102.776C253.1 106.445 251.831 109.143 251.008 111.468L251.951 111.802ZM255.012 91.8359L255.994 91.6488C255.976 91.5526 255.964 91.4887 255.958 91.4559L254.973 91.6285L253.988 91.8011C253.997 91.8504 254.011 91.9278 254.029 92.023L255.012 91.8359ZM254.973 91.6285L255.958 91.4559C255.937 91.3349 255.9 91.1961 255.878 91.1075C255.851 91.0007 255.827 90.9065 255.809 90.813C255.791 90.7198 255.782 90.6455 255.779 90.5875C255.777 90.5283 255.784 90.5087 255.782 90.516C255.778 90.5293 255.763 90.5717 255.722 90.6158C255.68 90.6608 255.648 90.669 255.666 90.663C255.731 90.6407 255.993 90.592 256.618 90.7155L256.812 89.7344L257.006 88.7534C256.248 88.6037 255.576 88.5808 255.022 88.7695C254.386 88.9858 254 89.4479 253.852 89.9909C253.726 90.4537 253.79 90.9102 253.846 91.1964C253.876 91.351 253.913 91.4944 253.939 91.6003C253.971 91.7243 253.983 91.7733 253.988 91.8011L254.973 91.6285ZM256.812 89.7344L256.701 90.7283C261.797 91.2945 270.072 91.3842 277.434 90.6239L277.332 89.6292L277.229 88.6345C269.996 89.3813 261.865 89.2897 256.922 88.7405L256.812 89.7344ZM277.332 89.6292V90.6292C277.655 90.6292 278.205 90.5784 278.83 90.517C279.483 90.4529 280.275 90.371 281.151 90.2935C282.906 90.1383 284.938 90.0074 286.684 90.0839L286.728 89.0848L286.772 88.0858C284.888 88.0033 282.747 88.1446 280.975 88.3013C280.086 88.3799 279.275 88.4638 278.635 88.5266C277.967 88.5922 277.533 88.6292 277.332 88.6292V89.6292ZM299.359 88.4705L300.116 89.1248C300.298 88.9143 300.486 88.6841 300.682 88.4328L299.894 87.8177L299.105 87.2026C298.926 87.4319 298.76 87.6354 298.603 87.8162L299.359 88.4705ZM301.066 85.4752L302.025 85.7573C302.897 82.7913 303.768 79.2179 301.975 75.3566C300.199 71.5312 295.921 67.6533 287.168 63.677L286.754 64.5874L286.341 65.4979C294.943 69.4057 298.688 73.0248 300.161 76.1989C301.618 79.337 300.967 82.2655 300.106 85.1931L301.066 85.4752ZM286.754 64.5874L287.09 63.6454C282.082 61.8623 271.953 59.4918 261.654 59.2859C251.424 59.0814 240.645 61.0055 234.772 68.2216L235.548 68.8528L236.323 69.484C241.567 63.0412 251.476 61.0828 261.614 61.2855C271.682 61.4868 281.598 63.813 286.419 65.5295L286.754 64.5874ZM203.543 175.823L203.183 174.89C192.567 178.975 184.462 182.93 180.802 184.454L181.187 185.378L181.571 186.301C185.423 184.696 193.272 180.847 203.902 176.757L203.543 175.823ZM181.187 185.378L180.802 184.454C177.687 185.752 159.289 194.023 151.961 217.2L152.914 217.501L153.868 217.803C160.93 195.469 178.651 187.517 181.571 186.301L181.187 185.378ZM152.914 217.501L151.972 217.166L127.232 286.641L128.174 286.976L129.117 287.312L153.856 217.837L152.914 217.501ZM128.174 286.976L127.255 286.584C124.673 292.637 122.331 309.397 132.622 329.361L133.511 328.903L134.399 328.445C124.362 308.972 126.763 292.835 129.094 287.368L128.174 286.976ZM133.511 328.903L132.591 329.295C136.39 338.219 143.067 352.803 149.688 365.796C152.998 372.291 156.301 378.404 159.229 383.217C160.692 385.623 162.07 387.719 163.315 389.38C164.544 391.021 165.697 392.313 166.72 393.042L167.3 392.227L167.88 391.413C167.123 390.874 166.123 389.793 164.915 388.181C163.724 386.591 162.383 384.555 160.937 382.178C158.047 377.426 154.77 371.363 151.47 364.888C144.872 351.939 138.214 337.396 134.431 328.511L133.511 328.903ZM167.3 392.227L167.4 393.222C170.445 392.918 178.175 390.733 185.739 384.462L185.101 383.693L184.463 382.923C177.201 388.942 169.846 390.968 167.201 391.232L167.3 392.227ZM185.101 383.693L185.789 384.418C187.639 382.664 191.002 379.6 193.916 377.247L193.288 376.469L192.659 375.691C189.688 378.09 186.283 381.194 184.413 382.967L185.101 383.693ZM235.184 151.524L234.194 151.384C233.93 153.251 233.781 154.504 233.347 155.842L234.298 156.151L235.25 156.459C235.75 154.917 235.92 153.458 236.174 151.664L235.184 151.524ZM225.14 166.304L224.626 165.446C218.549 169.086 210.088 172.831 203.257 174.865L203.543 175.823L203.828 176.782C210.822 174.699 219.436 170.886 225.653 167.162L225.14 166.304ZM286.728 89.0848L286.684 90.0839C287.696 90.1282 288.791 90.3074 289.959 90.5161C291.103 90.7207 292.327 90.9555 293.503 91.0773C295.832 91.3183 298.354 91.1614 300.116 89.1248L299.359 88.4705L298.603 87.8162C297.519 89.069 295.898 89.3144 293.709 89.0879C292.626 88.9758 291.497 88.7594 290.311 88.5473C289.147 88.3394 287.932 88.1366 286.772 88.0858L286.728 89.0848ZM233.59 112.251L233.87 113.211C236.301 112.501 238.383 113.681 240.424 116.026C242.479 118.387 244.187 121.574 245.907 124.315L246.754 123.784L247.601 123.252C245.992 120.688 244.124 117.231 241.933 114.713C239.727 112.179 236.892 110.246 233.31 111.291L233.59 112.251ZM255.038 103.032L256.004 103.288C257.027 99.4237 256.713 95.4249 255.994 91.6488L255.012 91.8359L254.029 92.023C254.725 95.6739 254.982 99.331 254.071 102.776L255.038 103.032ZM234.298 156.151L233.347 155.842C232.015 159.95 228.551 163.095 224.626 165.446L225.14 166.304L225.653 167.162C229.746 164.71 233.699 161.242 235.25 156.459L234.298 156.151ZM299.894 87.8177L300.682 88.4328C301.313 87.6239 301.748 86.7016 302.025 85.7573L301.066 85.4752L300.106 85.1931C299.888 85.9374 299.557 86.6237 299.105 87.2026L299.894 87.8177ZM238.64 143.05L239.64 143.032C239.573 139.461 237.998 136.372 236.247 133.509C234.454 130.576 232.525 127.94 231.359 124.988L230.429 125.355L229.499 125.723C230.75 128.889 232.865 131.811 234.541 134.553C236.261 137.364 237.584 140.064 237.64 143.069L238.64 143.05ZM193.288 376.469L193.916 377.247C196.423 375.223 199.209 373.217 201.681 370.975L201.009 370.235L200.338 369.494C197.915 371.691 195.293 373.564 192.659 375.691L193.288 376.469ZM226.74 137.385L225.877 137.891C228.378 142.156 231.044 146.06 233.271 150.336L234.158 149.874L235.045 149.412C232.798 145.098 230 140.969 227.603 136.879L226.74 137.385ZM233.814 70.0315L234.108 70.9872C234.986 70.7168 235.753 70.1841 236.323 69.484L235.548 68.8528L234.772 68.2216C234.442 68.6273 234.004 68.9264 233.519 69.0758L233.814 70.0315Z" fill="#0C3058"/>
<path d="M171.991 306.074C176.178 312.838 178.216 333.225 181.308 342.695C184.265 348.86 194.851 363.703 201.009 370.235M171.991 306.074C174.139 304.867 177.684 302.2 179.902 290.603C181.274 283.426 183.216 276.536 186.323 269.922C186.889 268.717 187.339 267.514 187.56 266.33C187.616 261.049 189.192 233.918 185.013 225.026M171.991 306.074C165.455 305.452 159.198 300.604 145.307 303.741" stroke="#0C3058" stroke-width="2" stroke-linecap="round"/>
<path d="M226.359 165.468C229.704 176.718 244.442 195.06 260.355 198.276C264.437 199.101 268.744 198.187 272.01 195.603C277.261 191.449 283.113 183.305 282.123 169.9" stroke="#0C3058" stroke-width="2"/>
<path d="M187.57 266.233C189.156 276.931 191.854 302.655 189.95 319.966C188.724 330.576 186.923 348.617 188.254 353.698" stroke="#0C3058" stroke-width="2"/>
<path d="M278.541 163.829C277.712 165.314 279.568 169.004 283.41 170.252C294.524 173.864 317.376 181.322 319.871 182.258C324.699 183.992 335.872 190.732 341.942 203.818C343.943 209.011 347.134 217.493 349.57 224.437C352.066 231.553 354.769 238.817 359.486 244.701C362.789 248.819 366.821 253.059 370.894 255.635" stroke="#0C3058" stroke-width="2"/>
<path d="M200.366 371.683C204.64 373.403 212.762 373.184 223.645 371.683C227.137 370.797 237.686 369.557 251.946 371.683C267.165 374.081 300.582 375.537 312.09 362.528" stroke="#0C3058" stroke-width="2" stroke-linecap="round"/>
<path d="M316.731 230.453C316.429 244.925 316.101 274.27 313.93 280.542C312.121 294.311 311.125 323.727 312.09 333.376C313.678 340.916 315.279 356.903 312.09 362.528" stroke="#0C3058" stroke-width="2" stroke-linecap="round"/>
<path d="M434.137 240.335L435.036 240.774C435.239 240.357 435.129 239.854 434.769 239.561L434.137 240.335ZM405.085 211.066L406.021 210.715C405.896 210.382 405.603 210.14 405.252 210.08C404.902 210.021 404.545 210.152 404.317 210.425L405.085 211.066ZM370.178 256.379L370.978 256.979L371.01 256.937L371.037 256.892L370.178 256.379ZM362.931 265.946C362.765 266.473 363.057 267.035 363.583 267.201C364.11 267.367 364.672 267.075 364.838 266.548L363.884 266.247L362.931 265.946ZM421.829 229.158L421.14 229.882L421.164 229.905L421.189 229.926L421.829 229.158ZM370.609 300.964L370.405 301.943L370.609 300.964ZM316.41 255.078L315.599 255.664C320.788 262.841 329.467 273.341 339.326 282.569C349.149 291.762 360.292 299.839 370.405 301.943L370.609 300.964L370.813 299.985C361.278 298.001 350.479 290.268 340.693 281.108C330.943 271.983 322.347 261.584 317.22 254.493L316.41 255.078ZM379.02 298.994L379.576 299.825C394.782 289.645 422.212 267.062 435.036 240.774L434.137 240.335L433.238 239.897C420.648 265.707 393.574 288.047 378.464 298.163L379.02 298.994ZM405.085 211.066L404.317 210.425C395.159 221.386 375.267 245.897 369.319 255.867L370.178 256.379L371.037 256.892C376.884 247.089 396.653 222.717 405.852 211.707L405.085 211.066ZM370.178 256.379L369.378 255.779C368.455 257.011 367.031 258.984 365.753 260.911C365.115 261.874 364.507 262.834 364.015 263.689C363.534 264.526 363.127 265.325 362.931 265.946L363.884 266.247L364.838 266.548C364.964 266.149 365.276 265.51 365.749 264.686C366.212 263.881 366.795 262.96 367.42 262.016C368.672 260.128 370.072 258.187 370.978 256.979L370.178 256.379ZM434.137 240.335L434.769 239.561C432.505 237.714 431.633 236.764 430.213 235.339C428.774 233.896 426.829 232.023 422.47 228.39L421.829 229.158L421.189 229.926C425.506 233.524 427.405 235.355 428.796 236.751C430.205 238.164 431.148 239.188 433.505 241.11L434.137 240.335ZM421.829 229.158L422.519 228.434C418.733 224.826 414.804 220.967 411.705 217.69C410.155 216.051 408.822 214.568 407.821 213.342C406.788 212.076 406.199 211.19 406.021 210.715L405.085 211.066L404.148 211.417C404.458 212.242 405.258 213.364 406.271 214.606C407.316 215.886 408.686 217.409 410.252 219.065C413.386 222.378 417.342 226.264 421.14 229.882L421.829 229.158ZM370.609 300.964L370.405 301.943C373.683 302.625 376.928 301.599 379.576 299.825L379.02 298.994L378.464 298.163C376.12 299.733 373.418 300.527 370.813 299.985L370.609 300.964Z" fill="#0C3058"/>
<path d="M206.527 378.511C204.237 395.955 194.335 402.881 188.827 406.668C187.246 407.58 181.754 409.753 178.358 409.753L172.863 410.399C172.368 410.457 171.992 410.86 171.981 411.358C171.661 426.018 171.539 455.548 173.5 463" stroke="#0C3058" stroke-width="2" stroke-linecap="round"/>
<path d="M310.866 364.601C318.41 381.888 321.563 409.195 321.563 409.195C323.875 425.797 328.3 459.5 327.5 461.5" stroke="#0C3058" stroke-width="2" stroke-linecap="round"/>
<path d="M195.82 374.735C198.297 377.143 199.064 378.168 205.954 381.325" stroke="#0C3058" stroke-width="2" stroke-linecap="round"/>
<path d="M174.48 390.327C179.061 396.259 179.241 397.118 189.229 406.204" stroke="#0C3058" stroke-width="2" stroke-linecap="round"/>
<path d="M176.326 393.259C174.409 396.765 173.374 405.16 172.481 409.655" stroke="#0C3058" stroke-width="2" stroke-linecap="round"/>
<path d="M406.036 212.447C407.816 209.935 411.329 204.872 411.832 204.118C412.445 202.944 413.441 199.32 412.518 194.216C411.897 185.014 410.224 166.329 412.518 161.262C412.626 160.946 412.76 160.63 412.915 160.324C415.376 155.468 419 163.05 419.433 168.477L419.763 172.621C419.793 173.004 420.284 173.177 420.569 172.919C422.101 171.526 423.078 169.705 424.174 167.947L433.451 153.066L436.967 147.01C437.64 145.85 438.436 144.766 439.341 143.776C439.864 143.205 440.419 142.622 441.157 142.391C442.118 142.09 443.178 142.227 443.825 142.989C444.733 144.056 444.275 145.656 443.865 146.996C442.574 151.219 440.211 156.2 430.163 172.586M430.163 172.586C429.766 173.233 429.357 173.898 428.935 174.582C427.735 176.25 424.793 180.069 426.311 182.21C427.104 183.329 429.485 184.102 432.475 181.356C433.711 179.951 435.469 177.904 437.115 175.898C440.391 171.907 443.065 163.475 438.087 164.848C435.976 165.43 433.198 167.636 430.163 172.586Z" stroke="#0C3058" stroke-width="2" stroke-linecap="round"/>
<path d="M451.408 178.883C454.274 180.354 457.198 188.593 448.266 201.531C446.996 203.075 444.88 205.468 442.791 207.667C439.415 211.219 435.707 214.552 432.916 218.58C432.041 219.842 431.167 221.183 430.397 222.503L425.092 231.691M451.408 178.883C447.047 177.091 445.154 179.301 441.467 183.813C438.863 187 434.816 191.652 437.387 194.866C438.245 195.905 441.297 196.905 446.048 190.808C448.665 187.449 453.872 180.599 451.408 178.883Z" stroke="#0C3058" stroke-width="2" stroke-linecap="round"/>
<path d="M446.108 171.487C443.036 169.714 439.826 172.358 438.605 173.901L437.668 175.04C435.472 177.71 433.57 180.609 431.996 183.687L431.118 185.405C430.059 188.201 430.41 189.684 431.401 190.302C434.972 192.525 438.62 187.301 441.227 183.999L441.984 183.041C444.718 179.577 449.624 174.154 446.108 171.487Z" stroke="#0C3058" stroke-width="2" stroke-linecap="round"/>
<path d="M380.586 297.305C380.586 301.64 384.04 305.188 388.374 305.302L674.88 312.888C679.379 313.008 683.091 309.392 683.091 304.891V69.2928C683.091 64.7787 679.359 61.1586 674.847 61.2966L388.341 70.0589C384.02 70.1911 380.586 73.7321 380.586 78.0552V241.35" stroke="#0C3058" stroke-width="2" stroke-linecap="round"/>
<path d="M454.501 188.572C459.797 188.338 465.039 187.184 469.988 185.134C478.35 181.67 485.497 175.805 490.525 168.28C495.553 160.754 498.237 151.907 498.237 142.856H452.476V97.0955C443.426 97.0955 434.578 99.7793 427.053 104.808C419.528 109.836 413.663 116.983 410.199 125.344C406.736 133.706 405.829 142.907 407.595 151.784C408.521 156.44 409.714 158.883 411.988 162.993" stroke="#0C3058" stroke-width="2" stroke-linecap="round" stroke-linejoin="round"/>
<mask id="path-20-inside-1_1294_5539" fill="white">
<path d="M460.066 88.316C466.076 88.316 472.026 89.4996 477.578 91.7993C483.13 94.099 488.175 97.4697 492.424 101.719C496.673 105.968 500.044 111.013 502.344 116.565C504.643 122.117 505.827 128.067 505.827 134.077L460.066 134.077L460.066 88.316Z"/>
</mask>
<path d="M460.066 88.316C466.076 88.316 472.026 89.4996 477.578 91.7993C483.13 94.099 488.175 97.4697 492.424 101.719C496.673 105.968 500.044 111.013 502.344 116.565C504.643 122.117 505.827 128.067 505.827 134.077L460.066 134.077L460.066 88.316Z" stroke="#0C3058" stroke-width="4" stroke-linecap="round" stroke-linejoin="round" mask="url(#path-20-inside-1_1294_5539)"/>
<path d="M522.268 192.867V272.19C522.268 274.35 523.983 276.12 526.142 276.188L646.836 279.992" stroke="#0C3058" stroke-width="2" stroke-linecap="round"/>
<path d="M527.624 271.704L569.3 230.305C570.058 229.552 571.274 229.528 572.061 230.25L596.023 252.228C596.867 253.002 598.186 252.911 598.916 252.029L649.676 190.655M649.676 190.655L634.106 194.593M649.676 190.655V202.467" stroke="#0C3058" stroke-width="2" stroke-linecap="round" stroke-linejoin="round"/>
<path d="M534.097 122.661L646.836 118.923" stroke="#0C3058" stroke-width="2" stroke-linecap="round" stroke-linejoin="round"/>
<path d="M534.097 107.768L646.836 104.652" stroke="#0C3058" stroke-width="2" stroke-linecap="round" stroke-linejoin="round"/>
<path d="M533.87 137.357L646.836 133.817" stroke="#0C3058" stroke-width="2" stroke-linecap="round" stroke-linejoin="round"/>
<path d="M534.097 151.365L624.808 148.513" stroke="#0C3058" stroke-width="2" stroke-linecap="round" stroke-linejoin="round"/>
</g>
<defs>
<clipPath id="clip0_1294_5539">
<rect width="784" height="450" fill="white"/>
</clipPath>
</defs>
</svg>
