<svg width="784" height="450" viewBox="0 0 784 450" fill="none" xmlns="http://www.w3.org/2000/svg">
<path d="M463.252 80H329.024C324.691 80 321.179 83.5121 321.179 87.8445V215.378V342.912C321.179 347.245 324.691 350.757 329.024 350.757H509.623C513.956 350.757 517.468 347.245 517.468 342.912V156.126V132.915M463.252 80L517.468 132.915M463.252 80V125.07C463.252 129.402 466.764 132.915 471.096 132.915H517.468M588.65 140.964C600.646 133.322 660.341 110.332 704 140.964" stroke="#0C3058" stroke-width="1.96111" stroke-linecap="round" stroke-linejoin="round"/>
<path d="M395.445 260.529C395.445 223.517 365.441 193.513 328.429 193.513C291.417 193.513 261.413 223.517 261.413 260.529C261.413 297.541 291.417 327.545 328.429 327.545C340.403 327.545 346.384 326.256 357.557 320.861" stroke="#0C3058" stroke-width="1.96111" stroke-linecap="round"/>
<ellipse cx="328.43" cy="260.528" rx="51.6269" ry="51.627" stroke="#0C3058" stroke-width="1.96111" stroke-linecap="round"/>
<path d="M289.332 315.511C282.055 323.7 252.207 356.194 233.436 368.405C231.787 369.477 229.766 369.789 227.92 369.108C226.092 368.434 223.834 367.367 222.467 365.872C221.336 364.633 220.41 362.789 219.763 361.244C219.012 359.45 219.178 357.437 220.292 355.843C228.037 344.764 255.195 320.193 271.375 306.407C272.166 305.734 273.34 305.802 274.056 306.555L279.578 312.362C280.313 313.135 280.297 314.352 279.539 315.103C270.576 323.976 255.145 339.053 243.54 349.505C234.601 357.557 224.032 363.801 212.172 365.823C204.288 367.167 194.749 368.237 185.444 368.857C163.559 370.314 143.287 359.564 121.497 357.062C100.726 354.677 87.8367 364.898 79 370" stroke="#0C3058" stroke-width="1.96111" stroke-linecap="round" stroke-linejoin="round"/>
<path d="M588.65 140.965C560.067 155.372 525.619 151.694 469.961 151.694L385.039 151.694C375.46 151.694 364.499 150.667 357.625 157.338C354.685 160.191 352.714 164.467 352.714 171.042C352.714 177.992 355.337 190.171 373.288 190.171" stroke="#0C3058" stroke-width="1.96111" stroke-linecap="round" stroke-linejoin="round"/>
<path d="M373.288 190.17L483.393 190.17" stroke="#0C3058" stroke-width="1.96111" stroke-linecap="round" stroke-linejoin="round"/>
<path d="M483.224 317.991L413.282 317.991L364.913 317.991C374.577 312.105 394.645 292.322 395.445 260.529" stroke="#0C3058" stroke-width="1.96111" stroke-linecap="round" stroke-linejoin="round"/>
<path d="M406.912 231.967L483.225 231.967" stroke="#0C3058" stroke-width="1.96111" stroke-linecap="round" stroke-linejoin="round"/>
<path d="M406.912 275.444L483.225 275.444" stroke="#0C3058" stroke-width="1.96111" stroke-linecap="round" stroke-linejoin="round"/>
</svg>
