<svg width="505" height="399" viewBox="0 0 505 399" fill="none" xmlns="http://www.w3.org/2000/svg">
<g clip-path="url(#clip0_1275_11350)">
<path d="M167.119 67.9422L167.925 68.5335L167.946 68.5049L167.965 68.475L167.119 67.9422ZM96.9838 27.9442L96.1388 27.4095L96.1334 27.4181L96.1281 27.4268L96.9838 27.9442ZM94.2443 77.2579L93.289 77.5536L93.2898 77.5562L94.2443 77.2579ZM97.5318 101.915L98.4262 102.362L98.4345 102.345L98.4421 102.329L97.5318 101.915ZM74.5187 118.901L75.4131 119.348L75.4354 119.303L75.4532 119.257L74.5187 118.901ZM158.352 85.4769L159.28 85.8483L159.298 85.8044L159.311 85.759L158.352 85.4769ZM89.8607 105.75L90.0777 106.726L90.0905 106.724L90.1033 106.72L89.8607 105.75ZM148.878 115.224C149.269 115.615 149.902 115.615 150.292 115.224C150.683 114.833 150.683 114.2 150.292 113.81L149.585 114.517L148.878 115.224ZM72.8749 122.188L73.2887 123.098L73.611 122.952L73.7693 122.635L72.8749 122.188ZM43.8518 138.921L43.2672 138.11L43.8518 138.921ZM80.3753 108.94L79.7361 108.171L80.3753 108.94ZM95.5561 81.4445L96.5101 81.1448L95.5561 81.4445ZM152.416 96.3832L151.624 95.7735L152.416 96.3832ZM149.181 103.148L148.183 103.078L149.181 103.148ZM160.085 20.6496L160.8 19.9497L160.085 20.6496ZM167.119 67.9422L167.965 68.475C173.609 59.5105 178.467 37.9767 160.8 19.9497L160.085 20.6496L159.371 21.3495C176.224 38.5453 171.562 59.0079 166.273 67.4093L167.119 67.9422ZM141.329 10.9224L141.477 9.93334C127.299 7.82238 106.962 10.3017 96.1388 27.4095L96.9838 27.9442L97.8289 28.4788C108.025 12.3627 127.323 9.84804 141.182 11.9115L141.329 10.9224ZM96.9838 27.9442L96.1281 27.4268C91.2268 35.5326 86.0841 54.2768 93.289 77.5536L94.2443 77.2579L95.1995 76.9622C88.158 54.2129 93.2435 36.0627 97.8396 28.4616L96.9838 27.9442ZM94.2443 77.2579L93.2898 77.5562C93.6291 78.6421 94.1096 80.1766 94.602 81.7442L95.5561 81.4445L96.5101 81.1448C96.018 79.5783 95.5378 78.0447 95.1987 76.9596L94.2443 77.2579ZM99.187 93.9296L98.1879 93.971C98.2796 96.1796 97.8824 98.7268 96.6214 101.501L97.5318 101.915L98.4421 102.329C99.833 99.2687 100.291 96.4096 100.186 93.8881L99.187 93.9296ZM80.3753 108.94L79.7361 108.171C77.8179 109.765 75.8128 112.695 73.5842 118.545L74.5187 118.901L75.4532 119.257C77.6379 113.522 79.4905 110.976 81.0145 109.709L80.3753 108.94ZM167.119 67.9422L166.312 67.3508C164.263 70.1453 159.628 77.5933 157.393 85.1947L158.352 85.4769L159.311 85.759C161.459 78.4567 165.956 71.2189 167.925 68.5335L167.119 67.9422ZM94.0587 104.701L93.8161 103.731L89.6182 104.78L89.8607 105.75L90.1033 106.72L94.3012 105.671L94.0587 104.701ZM158.352 85.4769L157.424 85.1055C156.367 87.747 154.085 92.5734 151.624 95.7735L152.416 96.3832L153.209 96.9928C155.835 93.5783 158.198 88.5547 159.28 85.8483L158.352 85.4769ZM149.181 103.148L148.183 103.078C148.023 105.358 147.921 108.03 147.961 110.244C147.982 111.348 148.038 112.364 148.146 113.169C148.2 113.57 148.27 113.946 148.364 114.266C148.448 114.548 148.591 114.937 148.878 115.224L149.585 114.517L150.292 113.81C150.377 113.895 150.347 113.919 150.282 113.699C150.228 113.517 150.175 113.253 150.128 112.903C150.035 112.208 149.981 111.279 149.961 110.207C149.922 108.069 150.02 105.459 150.178 103.219L149.181 103.148ZM74.5187 118.901L73.6243 118.453C73.259 119.184 72.4188 120.864 71.9805 121.741L72.8749 122.188L73.7693 122.635C74.2077 121.758 75.0478 120.078 75.4131 119.348L74.5187 118.901ZM72.8749 122.188L72.4611 121.278C65.7614 124.323 53.5677 130.687 43.2672 138.11L43.8518 138.921L44.4364 139.733C54.6003 132.408 66.6707 126.106 73.2887 123.098L72.8749 122.188ZM23.6731 166.911L22.718 166.615C22.1382 168.484 21.69 170.298 21.4741 171.917L22.4653 172.05L23.4566 172.182C23.6523 170.713 24.067 169.017 24.6282 167.207L23.6731 166.911ZM43.8518 138.921L43.2672 138.11C33.5392 145.12 26.2714 155.158 22.718 166.615L23.6731 166.911L24.6282 167.207C28.0517 156.17 35.0571 146.491 44.4364 139.733L43.8518 138.921ZM80.3753 108.94L81.0145 109.709C82.1492 108.766 83.5426 108.199 85.1151 107.779C86.7439 107.344 88.3266 107.116 90.0777 106.726L89.8607 105.75L89.6438 104.774C88.1127 105.114 86.2456 105.407 84.5987 105.847C82.8955 106.302 81.1873 106.965 79.7361 108.171L80.3753 108.94ZM95.5561 81.4445L94.602 81.7442C95.2529 83.8161 96.1623 85.9868 96.8487 87.9444C97.5596 89.9719 98.1039 91.9469 98.1879 93.971L99.187 93.9296L100.186 93.8881C100.09 91.57 99.4699 89.3755 98.7361 87.2826C97.9777 85.1197 97.1617 83.2191 96.5101 81.1448L95.5561 81.4445ZM152.416 96.3832L151.624 95.7735C150.081 97.7789 148.385 100.214 148.183 103.078L149.181 103.148L150.178 103.219C150.333 101.017 151.656 99.0127 153.209 96.9928L152.416 96.3832ZM97.5318 101.915L96.6373 101.468C96.0723 102.598 95.0418 103.424 93.8161 103.731L94.0587 104.701L94.3012 105.671C96.0933 105.223 97.6001 104.014 98.4262 102.362L97.5318 101.915ZM160.085 20.6496L160.8 19.9497C155.612 14.6561 148.836 11.0291 141.477 9.93334L141.329 10.9224L141.182 11.9115C148.083 12.939 154.468 16.3466 159.371 21.3495L160.085 20.6496Z" fill="#0C3058"/>
<path d="M172.226 151.117C172.77 151.02 173.132 150.5 173.035 149.956C172.938 149.413 172.418 149.051 171.874 149.148L172.05 150.132L172.226 151.117ZM166.566 143.849C167.03 143.549 167.163 142.93 166.863 142.466C166.563 142.002 165.943 141.87 165.48 142.17L166.023 143.009L166.566 143.849ZM203.683 193.419L204.672 193.571L204.676 193.542L204.679 193.514L203.683 193.419ZM208.762 138.626L209.619 138.111L209.582 138.05L209.536 137.994L208.762 138.626ZM152.873 115.613L152.694 116.597L152.729 116.603L152.765 116.607L152.873 115.613ZM137.279 103.767L136.905 104.694L137.279 103.767ZM126.66 102.489L126.67 103.489L126.66 102.489ZM145.409 112.79L145.956 111.953L145.409 112.79ZM143.405 110.278L142.511 110.725L143.405 110.278ZM202.723 199.664L203.711 199.816L202.723 199.664ZM199.722 202.543L199.404 203.491L199.722 202.543ZM193.579 201.235L193.707 200.243L193.579 201.235ZM200.42 202.801L200.045 203.729L200.42 202.801ZM212.511 157.544L211.511 157.51L212.511 157.544ZM147.193 201.486L146.873 200.539L147.193 201.486ZM155.064 161.56L155.812 162.225C158.7 158.976 162.511 152.853 172.226 151.117L172.05 150.132L171.874 149.148C161.332 151.032 157.039 157.833 154.317 160.896L155.064 161.56ZM155.064 161.56L156.05 161.732C156.402 159.703 157.255 156.365 158.922 152.957C160.59 149.547 163.043 146.129 166.566 143.849L166.023 143.009L165.48 142.17C161.551 144.712 158.89 148.469 157.125 152.078C155.358 155.69 154.457 159.217 154.079 161.389L155.064 161.56ZM144.249 199.362L145.245 199.442C145.729 193.437 147.412 185.829 149.483 178.822C151.557 171.805 153.99 165.492 155.935 162.053L155.064 161.56L154.194 161.068C152.136 164.706 149.652 171.192 147.565 178.255C145.474 185.329 143.751 193.084 143.252 199.282L144.249 199.362ZM200.42 202.801L200.794 201.874C200.522 201.765 200.275 201.674 200.041 201.595L199.722 202.543L199.404 203.491C199.601 203.558 199.811 203.634 200.045 203.729L200.42 202.801ZM203.683 193.419L202.695 193.267L201.734 199.512L202.723 199.664L203.711 199.816L204.672 193.571L203.683 193.419ZM205.223 183.345L204.246 183.133C203.537 186.401 203.011 189.928 202.688 193.324L203.683 193.419L204.679 193.514C204.996 190.187 205.51 186.739 206.201 183.557L205.223 183.345ZM208.762 138.626L207.904 139.14C208.997 140.962 211.861 147.356 211.511 157.51L212.511 157.544L213.51 157.579C213.874 147.032 210.907 140.258 209.619 138.111L208.762 138.626ZM152.873 115.613L152.765 116.607C169.674 118.445 191.306 118.811 207.987 139.258L208.762 138.626L209.536 137.994C192.245 116.798 169.678 116.433 152.981 114.619L152.873 115.613ZM145.409 112.79L144.862 113.627C146.467 114.675 149.119 115.947 152.694 116.597L152.873 115.613L153.052 114.629C149.753 114.029 147.35 112.863 145.956 111.953L145.409 112.79ZM137.279 103.767L136.905 104.694C138.731 105.432 140.586 106.875 142.511 110.725L143.405 110.278L144.3 109.83C142.211 105.655 140.034 103.802 137.654 102.84L137.279 103.767ZM193.579 201.235L193.707 200.243C174.926 197.824 160.221 196.034 146.873 200.539L147.193 201.486L147.512 202.434C160.339 198.105 174.549 199.792 193.451 202.227L193.579 201.235ZM94.2441 104.654L94.4333 105.636C102.892 104.006 117.146 103.586 126.67 103.489L126.66 102.489L126.65 101.489C117.156 101.586 102.72 102.003 94.0549 103.672L94.2441 104.654ZM137.279 103.767L137.654 102.84C134.115 101.409 130.195 101.453 126.65 101.489L126.66 102.489L126.67 103.489C130.292 103.452 133.799 103.438 136.905 104.694L137.279 103.767ZM145.409 112.79L145.956 111.953C145.269 111.504 144.767 110.765 144.3 109.83L143.405 110.278L142.511 110.725C143.021 111.746 143.719 112.88 144.862 113.627L145.409 112.79ZM202.588 201.43H203.588C203.588 200.89 203.629 200.35 203.711 199.816L202.723 199.664L201.734 199.512C201.637 200.147 201.588 200.788 201.588 201.43H202.588ZM199.722 202.543L200.041 201.595C197.967 200.898 195.813 200.514 193.707 200.243L193.579 201.235L193.451 202.227C195.5 202.49 197.508 202.854 199.404 203.491L199.722 202.543ZM200.42 202.801L200.045 203.729C201.627 204.367 203.588 203.322 203.588 201.43H202.588H201.588C201.588 201.596 201.508 201.735 201.356 201.828C201.198 201.926 200.99 201.953 200.794 201.874L200.42 202.801ZM205.223 183.345L206.201 183.557C207.123 179.306 208.829 175.174 210.398 170.86C211.951 166.592 213.351 162.184 213.51 157.579L212.511 157.544L211.511 157.51C211.364 161.777 210.063 165.931 208.519 170.177C206.991 174.377 205.206 178.709 204.246 183.133L205.223 183.345ZM144.249 199.362L143.252 199.282C143.059 201.678 145.462 203.126 147.512 202.434L147.193 201.486L146.873 200.539C145.953 200.849 145.187 200.171 145.245 199.442L144.249 199.362Z" fill="#0C3058"/>
<path d="M197.803 202.734C197.986 205.839 196.159 211.637 193.42 219.172C192.79 220.904 189.58 226.981 188.707 230.028C188.498 230.76 188.871 231.463 189.523 231.855C206.623 242.125 243.033 258.33 257.528 270.677" stroke="#0C3058" stroke-width="2"/>
<path d="M96.4355 83.8325C98.97 87.6342 105.524 92.0111 109.9 94.3191C111.926 95.3879 114.25 95.6183 116.52 95.3113C129.734 93.5247 132.29 92.0555 144.448 83.6739C146.509 82.2532 148.243 80.3966 149.578 78.2794C151.546 75.1585 152.701 73.3873 153.968 69.5868C156.591 61.7203 161.852 60.0268 163.283 65.7516C163.831 67.9442 164.927 69.5866 167.119 67.9428" stroke="#0C3058" stroke-width="2"/>
<path d="M22.465 172.05C20.4408 187.737 17.4819 217.445 12.7249 227.938C12.6117 228.188 12.4974 228.427 12.3821 228.655C11.8816 229.643 11.5247 230.763 11.9773 231.774C13.8691 235.998 22.0372 242.678 38.9029 243.828" stroke="#0C3058" stroke-width="2" stroke-linecap="round"/>
<path d="M18.082 238.349C17.1687 247.847 14.7944 279.992 15.8901 289.855C18.4471 304.101 30.246 337.524 35.0678 344.1" stroke="#0C3058" stroke-width="2" stroke-linecap="round"/>
<path d="M30.6839 193.966C30.6839 212.048 37.6429 239.576 41.6424 252.596C44.7624 262.752 49.8614 272.869 51.5052 282.184" stroke="#0C3058" stroke-width="2" stroke-linecap="round"/>
<path d="M293.691 194.692C290.369 194.824 284.468 196.113 280.28 196.812C277.915 197.207 275.504 197.083 273.187 196.464C267.204 194.868 261.771 192.323 255.336 192.323C249.814 192.323 243.777 196.478 234.887 195.268C228.548 194.405 222.49 191.583 216.145 192.393C211.229 193.02 206.412 194.19 203.83 194.514" stroke="#0C3058" stroke-width="2" stroke-linecap="round"/>
<path d="M211.13 123.024L210.144 122.857L210.125 122.974L210.133 123.092L211.13 123.024ZM227.391 91.5038L226.771 90.7189L226.749 90.7369L226.727 90.7563L227.391 91.5038ZM288.397 94.703L289.186 94.0895L289.154 94.0483L289.118 94.0107L288.397 94.703ZM304.201 167.025C304.15 167.575 304.554 168.062 305.104 168.114C305.654 168.165 306.141 167.761 306.193 167.211L305.197 167.118L304.201 167.025ZM304.418 141.629L303.419 141.659L304.418 141.629ZM298.476 117.966L297.483 118.082L298.476 117.966ZM299.903 124.641L300.841 124.294L299.903 124.641ZM211.13 123.024L210.133 123.092C210.175 123.701 210.077 124.594 209.845 125.701C209.616 126.792 209.269 128.027 208.851 129.294C208.012 131.835 206.91 134.433 205.962 136.158L206.838 136.64L207.714 137.122C208.736 135.264 209.883 132.547 210.75 129.921C211.184 128.605 211.554 127.295 211.802 126.112C212.047 124.946 212.189 123.839 212.128 122.955L211.13 123.024ZM227.391 91.5038L226.727 90.7563C222.503 94.5093 213.303 104.202 210.144 122.857L211.13 123.024L212.116 123.19C215.178 105.106 224.067 95.7953 228.055 92.2513L227.391 91.5038ZM236.333 85.9595L236.006 85.0145C233.606 85.8453 230.521 87.7585 226.771 90.7189L227.391 91.5038L228.011 92.2887C231.715 89.3642 234.587 87.6225 236.66 86.9045L236.333 85.9595ZM241.587 84.4942L241.923 85.4361C247.094 83.593 255.124 82.5002 263.589 83.6777C272.042 84.8536 280.85 88.2814 287.675 95.3953L288.397 94.703L289.118 94.0107C281.908 86.4944 272.642 82.9178 263.865 81.6968C255.099 80.4774 246.742 81.5952 241.251 83.5522L241.587 84.4942ZM288.397 94.703L287.607 95.3165C288.425 96.369 289.384 97.2719 290.264 98.1872C291.165 99.124 292.078 100.164 292.961 101.614C294.729 104.516 296.448 109.177 297.483 118.082L298.476 117.966L299.47 117.851C298.416 108.791 296.644 103.815 294.669 100.573C293.681 98.9513 292.66 97.7932 291.706 96.8012C290.732 95.7877 289.918 95.0312 289.186 94.0895L288.397 94.703ZM299.903 124.641L298.965 124.987C300.628 129.483 303.245 136.011 303.419 141.659L304.418 141.629L305.418 141.598C305.232 135.543 302.452 128.649 300.841 124.294L299.903 124.641ZM305.197 167.118L306.193 167.211C306.272 166.358 306.199 164.964 306.009 163.222C305.817 161.454 305.497 159.256 305.056 156.758L304.071 156.932L303.086 157.106C303.522 159.573 303.835 161.725 304.021 163.438C304.21 165.176 304.261 166.392 304.201 167.025L305.197 167.118ZM304.418 141.629L303.419 141.659C303.494 144.101 303.197 146.599 302.978 149.225C302.761 151.811 302.624 154.489 303.086 157.106L304.071 156.932L305.056 156.758C304.642 154.416 304.756 151.96 304.971 149.392C305.182 146.864 305.497 144.19 305.418 141.598L304.418 141.629ZM298.476 117.966L297.483 118.082C297.75 120.375 298.131 122.731 298.965 124.987L299.903 124.641L300.841 124.294C300.091 122.264 299.731 120.097 299.47 117.851L298.476 117.966ZM236.333 85.9595L236.66 86.9045C237.459 86.628 238.301 86.4237 239.199 86.2041C240.081 85.9886 241.018 85.7585 241.923 85.4361L241.587 84.4942L241.251 83.5522C240.459 83.8346 239.62 84.0425 238.725 84.2612C237.847 84.4757 236.91 84.7017 236.006 85.0145L236.333 85.9595Z" fill="#0C3058"/>
<path d="M145.749 201.638C143.331 209.858 141.34 228.577 140.906 239.792C140.804 242.423 141.617 244.99 143.109 247.16C145.549 250.711 148.946 253.479 152.872 255.253C179.447 267.26 215.627 286.924 233.418 291.498" stroke="#0C3058" stroke-width="2"/>
<path d="M148.489 253.691C147.07 255.186 139.346 265.342 134.389 273.164C133.46 274.63 132.174 275.847 130.508 276.331C116.899 280.287 73.1588 282.3 51.59 282.83M51.59 282.83C51.59 282.83 45.7472 283.639 44.9828 281.8M51.59 282.83L49.1749 273.17C48.9215 272.156 48.0043 271.422 46.9694 271.566C37.7967 272.845 34.0882 283.944 33.3736 289.661C31.7001 296.634 34.4967 301.543 38.0491 304.65C41.9379 308.05 47.3363 308.781 52.4725 309.333C94.5155 313.849 135.686 313.326 151.78 312.432C159.066 311.065 179.676 285.414 185.749 272.321" stroke="#0C3058" stroke-width="2" stroke-linecap="round"/>
<path d="M47.1217 309.032C41.5149 312.26 45.3912 323.233 36.2555 341.95C34.85 344.83 34.0667 347.99 33.7558 351.179C33.1538 357.354 31.3992 365.471 29.0401 369.852C28.1498 371.781 26.6085 375.712 26.2967 378.528C26.1846 379.541 27.0179 380.309 28.0349 380.371C45.892 381.454 81.6439 382.808 94.7917 380.263C100.454 378.437 114.408 375.332 124.928 377.523C142.644 379.35 174.789 385.742 182.461 380.811" stroke="#0C3058" stroke-width="2" stroke-linecap="round"/>
<path d="M152.873 322.182C155.795 330.401 158.79 347.387 151.777 362.729C151.046 364.921 149.475 370.181 149.037 373.688" stroke="#0C3058" stroke-width="2" stroke-linecap="round"/>
<path d="M28.4924 380.811C28.1271 386.473 27.6157 398.674 28.4924 402.18" stroke="#0C3058" stroke-width="2" stroke-linecap="round"/>
<circle cx="390.127" cy="85.4765" r="19.8214" stroke="#0C3058" stroke-width="2"/>
<path d="M406.564 74.5162C401.085 66.8461 381.907 67.3932 377.524 81.0914C374.507 87.5556 379.963 98.4257 389.627 98.509C395.734 98.5616 401.559 93.4411 401.114 87.3501C400.808 83.1528 398.25 79.31 393.019 78.9704C389.98 78.7732 386.729 79.8918 385.176 82.5108C383.444 85.4302 383.546 89.2966 387.596 90.5467C389.578 91.1585 391.886 90.6034 392.657 88.6781C393.187 87.3573 393.208 85.7905 391.77 84.9279" stroke="#0C3058" stroke-width="2" stroke-linecap="round"/>
<path d="M409.852 87.1222C409.906 86.8525 409.961 86.5986 410.018 86.3597C410.789 83.1285 413.421 80.6066 414.267 77.3943C417.053 66.8108 414.492 55.7111 412.591 50.9588C410.4 45.4795 406.199 39.9986 403.276 37.8065C391.222 29.5877 378.802 29.5885 372.592 31.2323C364.789 32.4459 348.983 39.9489 345.154 60.2142C344.751 62.3492 345.366 64.5263 346.495 66.3823C348.363 69.4501 350.585 73.7501 351.223 77.2576C351.507 79.3876 352.476 83.7037 354.335 87.1671C355.358 89.073 357.049 90.488 358.849 91.6875C360.672 92.9019 362.831 94.299 364.6 95.3447C365.885 96.1047 367.11 96.976 368.398 97.7318C370.24 98.8123 372.859 99.7932 375.332 99.1748" stroke="#0C3058" stroke-width="2" stroke-linecap="round"/>
<path d="M345.196 61.9155C344.466 64.6552 343.333 71.8879 344.648 78.9014C345.196 81.4584 346.292 86.9011 346.292 88.2162C346.984 91.8157 349.146 98.3324 353.015 101.848C355.405 104.021 358.767 104.886 360.685 107.485C362.674 110.181 365.168 114.658 367.661 121.64" stroke="#0C3058" stroke-width="2" stroke-linecap="round"/>
<path d="M398.345 103.558C397.98 105.933 399.66 110.791 402.729 113.421" stroke="#0C3058" stroke-width="2" stroke-linecap="round"/>
<path d="M367.661 121.641C361.999 121.093 349.798 122.517 346.292 123.832C339.717 126.297 328.21 129.311 315.06 147.393C311.589 154.151 305.745 165.474 304.101 169.858" stroke="#0C3058" stroke-width="2" stroke-linecap="round"/>
<path d="M290.951 214.24L282.454 248.583L281.089 250.404C271.532 256.016 246.535 281.407 238.162 288.324C232.094 292.571 219.596 301.247 218.14 301.976C216.168 303.189 210.313 306.071 202.668 307.891C197.175 308.903 188.046 308.055 184.049 315.533C183.644 316.291 183.221 317.143 183.418 317.98C183.433 318.043 183.452 318.106 183.475 318.167C183.825 319.088 184.744 320.916 184.381 321.832C183.904 323.037 183.5 324.617 183.455 326.401C183.432 327.329 183.645 328.277 184.373 328.853C184.791 329.183 185.308 329.503 185.819 329.758C186.774 330.236 187.187 331.735 186.686 332.678C186.02 333.931 185.532 335.437 185.819 336.588C185.965 337.17 186.31 338.261 187.623 338.991C187.736 339.054 187.843 339.127 187.936 339.216C188.505 339.755 188.45 340.653 187.976 341.277C187.382 342.06 186.904 343.173 187.298 344.613C187.606 345.737 188.197 346.13 189.152 346.797C190.197 347.527 192.202 346.633 193.381 346.149C194.664 345.623 196.274 345.396 197.052 344.661C202.766 340.619 210.685 338.094 215.323 333.588C216.124 332.809 216.972 332.069 217.974 331.572C220.377 330.38 224.186 328.67 227.391 327.796C240.891 322.942 292.058 299.894 295.335 298.074C302.767 295.04 318.188 273.489 322.731 263.006C329.854 246.568 335.882 239.993 340.813 221.911" stroke="#0C3058" stroke-width="2" stroke-linecap="round"/>
<path d="M367.113 121.64C375.515 125.11 394.51 128.325 403.277 113.421C409.487 116.526 422.783 123.065 426.29 124.38C430.491 126.389 439.91 132.599 444.371 143.009C447.659 150.68 451.495 163.283 452.59 169.858C453.412 174.789 455.549 182.241 454.234 201.09C454.234 208.396 454.234 222.459 454.234 229.582C453.138 241.089 454.234 241.637 450.399 259.17" stroke="#0C3058" stroke-width="2" stroke-linecap="round"/>
<path d="M305.078 170.075C305.198 169.536 304.858 169.001 304.318 168.882C303.779 168.762 303.245 169.102 303.125 169.641L304.102 169.858L305.078 170.075ZM289.855 204.925L288.907 204.609L288.895 204.646L288.885 204.683L289.855 204.925ZM287.116 213.144L286.284 212.59C286.102 212.862 286.065 213.206 286.185 213.511C286.305 213.815 286.567 214.042 286.885 214.117L287.116 213.144ZM325.471 216.98V215.98H325.44L325.408 215.982L325.471 216.98ZM340.265 221.363L340.744 220.485L340.265 221.363ZM355.507 180.912C355.559 180.362 355.157 179.874 354.607 179.821C354.057 179.768 353.569 180.171 353.516 180.721L354.511 180.816L355.507 180.912ZM344.495 222.356L344.625 223.347L344.495 222.356ZM304.102 169.858L303.125 169.641C302.873 170.777 301.991 173.174 300.732 176.305C299.487 179.401 297.908 183.129 296.306 186.875C293.118 194.327 289.801 201.927 288.907 204.609L289.855 204.925L290.804 205.242C291.663 202.663 294.922 195.196 298.144 187.662C299.747 183.915 301.333 180.17 302.588 177.051C303.828 173.966 304.782 171.404 305.078 170.075L304.102 169.858ZM289.855 204.925L288.885 204.683C288.615 205.764 288.154 207.471 287.655 209.064C287.405 209.862 287.148 210.62 286.904 211.253C286.651 211.907 286.437 212.359 286.284 212.59L287.116 213.144L287.948 213.699C288.233 213.272 288.512 212.641 288.77 211.974C289.035 211.285 289.306 210.482 289.563 209.663C290.077 208.023 290.548 206.278 290.826 205.168L289.855 204.925ZM287.116 213.144L286.885 214.117C293.865 215.77 311.363 218.863 325.533 217.978L325.471 216.98L325.408 215.982C311.524 216.849 294.247 213.806 287.346 212.171L287.116 213.144ZM325.471 216.98V217.98C328.7 217.98 330.778 218.249 332.766 218.89C334.784 219.541 336.755 220.588 339.786 222.241L340.265 221.363L340.744 220.485C337.748 218.851 335.609 217.706 333.38 216.987C331.122 216.259 328.817 215.98 325.471 215.98V216.98ZM340.265 221.363L339.786 222.241C340.271 222.505 341.01 222.833 341.845 223.071C342.67 223.305 343.664 223.473 344.625 223.347L344.495 222.356L344.366 221.364C343.78 221.441 343.082 221.343 342.391 221.147C341.71 220.953 341.108 220.684 340.744 220.485L340.265 221.363ZM346.258 220.673L347.181 221.059C348.94 216.85 350.381 213.613 351.698 208.011C353.01 202.432 354.198 194.521 355.507 180.912L354.511 180.816L353.516 180.721C352.209 194.307 351.032 202.109 349.752 207.553C348.477 212.973 347.099 216.067 345.336 220.287L346.258 220.673ZM344.495 222.356L344.625 223.347C346.051 223.161 346.814 221.936 347.181 221.059L346.258 220.673L345.336 220.287C345.03 221.018 344.669 221.324 344.366 221.364L344.495 222.356Z" fill="#0C3058"/>
<path d="M433.413 145.201C441.449 157.073 446.673 170.077 444.919 216.98C445.102 220.633 446.125 230.349 448.755 239.993C449.303 243.098 450.398 251.39 450.398 259.718C451.129 269.033 450.398 269.033 453.138 276.156" stroke="#0C3058" stroke-width="2" stroke-linecap="round"/>
<path d="M186.844 272.869C186.479 275.791 186.999 288.211 187.876 292.594C188.789 297.526 190.506 307.827 190.068 309.58" stroke="#0C3058" stroke-width="2" stroke-linecap="round"/>
<path d="M189.584 347.934C188.407 351.297 187.168 359.15 187.321 363.796C187.345 364.536 187.241 365.276 186.931 365.949C185.104 369.913 181.804 376.399 183.009 386.838L183.009 388.665C183.009 389.801 183.874 390.75 185.006 390.839C196.245 391.726 218.245 392.734 229.583 390.673C234.366 389.397 272.979 384.753 289.998 385.928C293.963 386.201 297.881 387.068 301.735 388.039C314.366 391.222 318.055 396.013 323.046 388.15C323.573 387.321 323.747 386.316 323.587 385.347C322.567 379.132 320.745 369.603 318.698 362.413C316.939 356.235 314.455 350.13 314.11 343.716C313.588 334.033 313.416 320.476 313.416 315.059" stroke="#0C3058" stroke-width="2" stroke-linecap="round"/>
<path d="M185.201 390.674V401.084" stroke="#0C3058" stroke-width="2" stroke-linecap="round"/>
<path d="M321.635 389.578C322.001 392.135 322.512 398.016 321.635 401.084" stroke="#0C3058" stroke-width="2" stroke-linecap="round"/>
<path d="M339.717 226.295C341.227 227.884 357.258 255.077 363.906 268.623C364.866 270.58 366.402 272.196 368.523 272.699C383.693 276.301 430.839 275.608 453.139 276.156M453.139 276.156C453.139 276.156 458.07 276.704 459.044 275.437M453.139 276.156C453.139 276.156 451.926 273.55 451.495 271.773C451.258 270.799 451.112 269.477 451.03 268.54C450.976 267.915 451.476 267.385 452.101 267.437C462.392 268.293 468.837 280.43 469.604 286.559C469.604 291.19 468.443 293.66 466.677 295.142C462.535 298.618 456.467 298.4 451.102 299.076C406.941 304.637 362.527 311.327 345.68 310.391C338.054 308.961 322.511 289.311 316.156 275.608" stroke="#0C3058" stroke-width="2" stroke-linecap="round"/>
<path d="M322.731 287.115C323.461 295.699 321.416 310.895 320.539 318.347C319.626 324.739 322.183 349.031 319.991 366.565" stroke="#0C3058" stroke-width="2" stroke-linecap="round"/>
<path d="M455.878 299.169C458.07 310.493 462.344 336.757 461.905 351.223C463.549 360.903 466.946 382.455 467.384 391.222C467.567 394.509 467.823 401.194 467.384 401.632" stroke="#0C3058" stroke-width="2" stroke-linecap="round"/>
<path d="M222.284 337.758C228.907 336.746 245.462 338.444 261.524 349.345C266.495 353.067 279.069 360.696 289.6 361.43" stroke="#0C3058" stroke-width="2" stroke-linecap="round"/>
<path d="M72.8745 122.188C86.5728 118.718 119.01 112.325 139.174 114.517" stroke="#0C3058" stroke-width="2" stroke-linecap="round"/>
<path d="M372.593 315.607C378.437 321.269 393.195 334.018 405.469 339.716C412.044 342.091 425.742 347.497 427.934 350.127" stroke="#0C3058" stroke-width="2" stroke-linecap="round"/>
<path d="M60.5432 156.559C56.6873 166.382 49.7594 192.688 52.8951 219.333C54.2081 230.618 57.8036 260.814 60.5432 273.417" stroke="#0C3058" stroke-width="2" stroke-linecap="round" stroke-linejoin="round"/>
<path d="M212.597 202.734C215.245 206.279 222.393 213.757 229.805 215.304C232.646 216.341 240 218.213 249.936 218.905C254.163 219.199 257.854 215.474 260.666 212.305C261.776 211.054 263.246 209.818 265.167 208.727C268.321 206.935 272.006 206.412 275.507 205.464C277.164 205.016 278.672 204.532 279.445 204.184" stroke="#0C3058" stroke-width="2" stroke-linecap="round" stroke-linejoin="round"/>
<path d="M305.163 315.079C307.295 315.49 311.406 315.789 315.169 314.841C318.47 314.01 321.133 310.513 318.944 307.907" stroke="#0C3058" stroke-width="2" stroke-linecap="round"/>
<path d="M318.645 307.907L319.091 308.802L318.645 307.907ZM307.292 308.103C306.74 308.085 306.278 308.518 306.26 309.07C306.243 309.622 306.676 310.084 307.228 310.102L307.26 309.102L307.292 308.103ZM309.657 301.333V300.333C309.132 300.333 308.696 300.738 308.659 301.262C308.622 301.786 308.996 302.249 309.515 302.323L309.657 301.333ZM317.079 300.764L317.846 301.405L317.846 301.405L317.079 300.764ZM315.963 295.2L316.386 294.294L315.963 295.2ZM308.757 292.862C308.205 292.862 307.758 293.31 307.758 293.862C307.758 294.415 308.206 294.862 308.758 294.862L308.758 293.862L308.757 292.862ZM320.089 304.714L319.128 304.99L320.089 304.714ZM318.645 307.907L318.198 307.012C317.225 307.498 314.67 308.34 307.292 308.103L307.26 309.102L307.228 310.102C314.71 310.343 317.668 309.512 319.091 308.802L318.645 307.907ZM320.089 304.714L319.128 304.99C319.247 305.405 319.244 305.786 319.126 306.1C319.014 306.395 318.765 306.73 318.198 307.012L318.645 307.907L319.091 308.802C320.049 308.324 320.686 307.631 320.997 306.805C321.302 305.996 321.258 305.161 321.05 304.437L320.089 304.714ZM309.657 301.333L309.515 302.323C310.825 302.509 313.329 302.836 315.36 303.111L315.494 302.12L315.628 301.13C313.577 300.852 311.1 300.528 309.798 300.343L309.657 301.333ZM317.079 300.764L316.311 300.123C316.315 300.119 316.285 300.155 316.17 300.208C316.055 300.26 315.889 300.312 315.661 300.356C315.203 300.445 314.605 300.48 313.91 300.48C313.22 300.479 312.481 300.443 311.745 300.407C311.02 300.371 310.288 300.333 309.657 300.333V301.333V302.333C310.227 302.333 310.902 302.367 311.645 302.404C312.375 302.441 313.162 302.479 313.907 302.48C314.647 302.48 315.395 302.445 316.042 302.32C316.649 302.202 317.376 301.968 317.846 301.405L317.079 300.764ZM315.963 295.2L315.54 296.107C316.441 296.527 316.876 297.197 316.989 297.888C317.106 298.604 316.891 299.429 316.311 300.123L317.079 300.764L317.846 301.405C318.764 300.306 319.182 298.905 318.963 297.565C318.739 296.201 317.867 294.985 316.386 294.294L315.963 295.2ZM308.758 293.862L308.758 294.862C309.559 294.861 310.972 295.035 312.377 295.293C313.806 295.556 315.04 295.873 315.54 296.107L315.963 295.2L316.386 294.294C315.624 293.938 314.15 293.586 312.738 293.326C311.303 293.062 309.745 292.861 308.757 292.862L308.758 293.862ZM320.089 304.714L321.05 304.437C320.678 303.144 319.729 302.375 318.72 301.914C317.732 301.463 316.591 301.26 315.628 301.13L315.494 302.12L315.36 303.111C316.294 303.238 317.186 303.412 317.889 303.733C318.571 304.045 318.97 304.443 319.128 304.99L320.089 304.714Z" fill="#0C3058"/>
<path d="M273.018 309.105C277.138 311.16 285.51 318.282 296.016 319.173C297.766 319.322 299.587 319.303 301.268 319.816C305.429 321.087 314.218 322.424 314.218 316.156" stroke="#0C3058" stroke-width="2" stroke-linecap="round"/>
<path d="M307.626 287.663C311.471 287.115 315.317 291.497 313.669 294.237" stroke="#0C3058" stroke-width="2"/>
<path d="M313.416 294.238V279.444" stroke="#0C3058" stroke-width="2" stroke-linecap="round"/>
</g>
<defs>
<clipPath id="clip0_1275_11350">
<rect width="504.286" height="402.181" fill="white"/>
</clipPath>
</defs>
</svg>
